<svg xmlns="http://www.w3.org/2000/svg" width="326" height="158" viewBox="0 0 326 158" fill="none">
<path d="M163 17.5L169.329 36.9803H189.812L173.241 49.0198L179.571 68.5L163 56.4607L146.429 68.5L152.758 49.0198L136.188 36.9803H156.67L163 17.5Z" stroke="#183865" stroke-width="4" stroke-linecap="round" stroke-linejoin="round"/>
<path d="M136.965 116.692C136.09 116.692 135.274 116.548 134.517 116.26C133.77 115.972 133.119 115.567 132.565 115.044C132.021 114.521 131.594 113.908 131.285 113.204C130.986 112.5 130.837 111.732 130.837 110.9C130.837 110.068 130.986 109.3 131.285 108.596C131.594 107.892 132.026 107.279 132.581 106.756C133.135 106.233 133.786 105.828 134.533 105.54C135.279 105.252 136.09 105.108 136.965 105.108C137.85 105.108 138.661 105.252 139.397 105.54C140.143 105.828 140.789 106.233 141.333 106.756C141.887 107.268 142.319 107.876 142.629 108.58C142.938 109.284 143.093 110.057 143.093 110.9C143.093 111.732 142.938 112.505 142.629 113.22C142.319 113.924 141.887 114.537 141.333 115.06C140.789 115.572 140.143 115.972 139.397 116.26C138.661 116.548 137.85 116.692 136.965 116.692ZM140.629 119.076C140.191 119.076 139.775 119.028 139.381 118.932C138.997 118.836 138.613 118.681 138.229 118.468C137.855 118.255 137.461 117.967 137.045 117.604C136.639 117.241 136.197 116.793 135.717 116.26L138.437 115.572C138.725 115.967 138.991 116.281 139.237 116.516C139.482 116.751 139.717 116.916 139.941 117.012C140.175 117.108 140.421 117.156 140.677 117.156C141.359 117.156 141.967 116.879 142.501 116.324L143.653 117.7C142.895 118.617 141.887 119.076 140.629 119.076ZM136.965 114.484C137.466 114.484 137.925 114.399 138.341 114.228C138.767 114.057 139.141 113.812 139.461 113.492C139.781 113.172 140.026 112.793 140.197 112.356C140.378 111.908 140.469 111.423 140.469 110.9C140.469 110.367 140.378 109.881 140.197 109.444C140.026 109.007 139.781 108.628 139.461 108.308C139.141 107.988 138.767 107.743 138.341 107.572C137.925 107.401 137.466 107.316 136.965 107.316C136.463 107.316 135.999 107.401 135.573 107.572C135.146 107.743 134.773 107.988 134.453 108.308C134.143 108.628 133.898 109.007 133.717 109.444C133.546 109.881 133.461 110.367 133.461 110.9C133.461 111.423 133.546 111.908 133.717 112.356C133.898 112.793 134.143 113.172 134.453 113.492C134.773 113.812 135.146 114.057 135.573 114.228C135.999 114.399 136.463 114.484 136.965 114.484ZM148.597 116.628C147.882 116.628 147.242 116.489 146.677 116.212C146.122 115.935 145.69 115.513 145.381 114.948C145.071 114.372 144.917 113.641 144.917 112.756V107.892H147.413V112.388C147.413 113.103 147.562 113.631 147.861 113.972C148.17 114.303 148.602 114.468 149.157 114.468C149.541 114.468 149.882 114.388 150.181 114.228C150.479 114.057 150.714 113.801 150.885 113.46C151.055 113.108 151.141 112.671 151.141 112.148V107.892H153.637V116.5H151.269V114.132L151.701 114.82C151.413 115.417 150.986 115.871 150.421 116.18C149.866 116.479 149.258 116.628 148.597 116.628ZM161.329 116.5V114.82L161.169 114.452V111.444C161.169 110.911 161.004 110.495 160.673 110.196C160.353 109.897 159.857 109.748 159.185 109.748C158.726 109.748 158.273 109.823 157.825 109.972C157.388 110.111 157.014 110.303 156.705 110.548L155.809 108.804C156.278 108.473 156.844 108.217 157.505 108.036C158.166 107.855 158.838 107.764 159.521 107.764C160.833 107.764 161.852 108.073 162.577 108.692C163.302 109.311 163.665 110.276 163.665 111.588V116.5H161.329ZM158.705 116.628C158.033 116.628 157.457 116.516 156.977 116.292C156.497 116.057 156.129 115.743 155.873 115.348C155.617 114.953 155.489 114.511 155.489 114.02C155.489 113.508 155.612 113.06 155.857 112.676C156.113 112.292 156.513 111.993 157.057 111.78C157.601 111.556 158.31 111.444 159.185 111.444H161.473V112.9H159.457C158.87 112.9 158.465 112.996 158.241 113.188C158.028 113.38 157.921 113.62 157.921 113.908C157.921 114.228 158.044 114.484 158.289 114.676C158.545 114.857 158.892 114.948 159.329 114.948C159.745 114.948 160.118 114.852 160.449 114.66C160.78 114.457 161.02 114.164 161.169 113.78L161.553 114.932C161.372 115.487 161.041 115.908 160.561 116.196C160.081 116.484 159.462 116.628 158.705 116.628ZM166.024 116.5V104.628H168.52V116.5H166.024ZM170.936 116.5V107.892H173.432V116.5H170.936ZM172.184 106.692C171.726 106.692 171.352 106.559 171.064 106.292C170.776 106.025 170.632 105.695 170.632 105.3C170.632 104.905 170.776 104.575 171.064 104.308C171.352 104.041 171.726 103.908 172.184 103.908C172.643 103.908 173.016 104.036 173.304 104.292C173.592 104.537 173.736 104.857 173.736 105.252C173.736 105.668 173.592 106.015 173.304 106.292C173.027 106.559 172.654 106.692 172.184 106.692ZM179.369 116.628C178.356 116.628 177.566 116.372 177.001 115.86C176.436 115.337 176.153 114.564 176.153 113.54V105.988H178.649V113.508C178.649 113.871 178.745 114.153 178.937 114.356C179.129 114.548 179.39 114.644 179.721 114.644C180.116 114.644 180.452 114.537 180.729 114.324L181.401 116.084C181.145 116.265 180.836 116.404 180.473 116.5C180.121 116.585 179.753 116.628 179.369 116.628ZM174.825 110.004V108.084H180.793V110.004H174.825ZM183.834 119.732C183.386 119.732 182.943 119.663 182.506 119.524C182.068 119.385 181.711 119.193 181.434 118.948L182.346 117.172C182.538 117.343 182.756 117.476 183.002 117.572C183.258 117.668 183.508 117.716 183.754 117.716C184.106 117.716 184.383 117.631 184.586 117.46C184.799 117.3 184.991 117.028 185.162 116.644L185.61 115.588L185.802 115.316L188.89 107.892H191.29L187.402 117.028C187.124 117.721 186.804 118.265 186.442 118.66C186.09 119.055 185.695 119.332 185.258 119.492C184.831 119.652 184.356 119.732 183.834 119.732ZM185.306 116.836L181.466 107.892H184.042L187.018 115.092L185.306 116.836ZM130.587 140.5V138.82L130.427 138.452V135.444C130.427 134.911 130.261 134.495 129.931 134.196C129.611 133.897 129.115 133.748 128.443 133.748C127.984 133.748 127.531 133.823 127.083 133.972C126.645 134.111 126.272 134.303 125.963 134.548L125.067 132.804C125.536 132.473 126.101 132.217 126.763 132.036C127.424 131.855 128.096 131.764 128.779 131.764C130.091 131.764 131.109 132.073 131.835 132.692C132.56 133.311 132.923 134.276 132.923 135.588V140.5H130.587ZM127.963 140.628C127.291 140.628 126.715 140.516 126.235 140.292C125.755 140.057 125.387 139.743 125.131 139.348C124.875 138.953 124.747 138.511 124.747 138.02C124.747 137.508 124.869 137.06 125.115 136.676C125.371 136.292 125.771 135.993 126.315 135.78C126.859 135.556 127.568 135.444 128.443 135.444H130.731V136.9H128.715C128.128 136.9 127.723 136.996 127.499 137.188C127.285 137.38 127.179 137.62 127.179 137.908C127.179 138.228 127.301 138.484 127.547 138.676C127.803 138.857 128.149 138.948 128.587 138.948C129.003 138.948 129.376 138.852 129.707 138.66C130.037 138.457 130.277 138.164 130.427 137.78L130.811 138.932C130.629 139.487 130.299 139.908 129.819 140.196C129.339 140.484 128.72 140.628 127.963 140.628ZM140.514 131.764C141.196 131.764 141.804 131.903 142.338 132.18C142.882 132.447 143.308 132.863 143.618 133.428C143.927 133.983 144.082 134.697 144.082 135.572V140.5H141.586V135.956C141.586 135.263 141.431 134.751 141.122 134.42C140.823 134.089 140.396 133.924 139.842 133.924C139.447 133.924 139.09 134.009 138.77 134.18C138.46 134.34 138.215 134.591 138.034 134.932C137.863 135.273 137.778 135.711 137.778 136.244V140.5H135.282V131.892H137.666V134.276L137.218 133.556C137.527 132.98 137.97 132.537 138.546 132.228C139.122 131.919 139.778 131.764 140.514 131.764ZM150.203 140.628C149.392 140.628 148.661 140.447 148.011 140.084C147.36 139.711 146.843 139.193 146.459 138.532C146.085 137.871 145.899 137.092 145.899 136.196C145.899 135.289 146.085 134.505 146.459 133.844C146.843 133.183 147.36 132.671 148.011 132.308C148.661 131.945 149.392 131.764 150.203 131.764C150.928 131.764 151.563 131.924 152.107 132.244C152.651 132.564 153.072 133.049 153.371 133.7C153.669 134.351 153.819 135.183 153.819 136.196C153.819 137.199 153.675 138.031 153.387 138.692C153.099 139.343 152.683 139.828 152.139 140.148C151.605 140.468 150.96 140.628 150.203 140.628ZM150.635 138.58C151.04 138.58 151.408 138.484 151.739 138.292C152.069 138.1 152.331 137.828 152.523 137.476C152.725 137.113 152.827 136.687 152.827 136.196C152.827 135.695 152.725 135.268 152.523 134.916C152.331 134.564 152.069 134.292 151.739 134.1C151.408 133.908 151.04 133.812 150.635 133.812C150.219 133.812 149.845 133.908 149.515 134.1C149.184 134.292 148.917 134.564 148.715 134.916C148.523 135.268 148.427 135.695 148.427 136.196C148.427 136.687 148.523 137.113 148.715 137.476C148.917 137.828 149.184 138.1 149.515 138.292C149.845 138.484 150.219 138.58 150.635 138.58ZM152.891 140.5V138.74L152.939 136.18L152.779 133.636V128.628H155.275V140.5H152.891ZM165.836 140.628C164.823 140.628 164.033 140.372 163.468 139.86C162.903 139.337 162.62 138.564 162.62 137.54V129.988H165.116V137.508C165.116 137.871 165.212 138.153 165.404 138.356C165.596 138.548 165.857 138.644 166.188 138.644C166.583 138.644 166.919 138.537 167.196 138.324L167.868 140.084C167.612 140.265 167.303 140.404 166.94 140.5C166.588 140.585 166.22 140.628 165.836 140.628ZM161.292 134.004V132.084H167.26V134.004H161.292ZM169.369 140.5V131.892H171.753V134.324L171.417 133.62C171.673 133.012 172.084 132.553 172.649 132.244C173.215 131.924 173.903 131.764 174.713 131.764V134.068C174.607 134.057 174.511 134.052 174.425 134.052C174.34 134.041 174.249 134.036 174.153 134.036C173.471 134.036 172.916 134.233 172.489 134.628C172.073 135.012 171.865 135.615 171.865 136.436V140.5H169.369ZM179.992 140.628C179.277 140.628 178.637 140.489 178.072 140.212C177.517 139.935 177.085 139.513 176.776 138.948C176.466 138.372 176.312 137.641 176.312 136.756V131.892H178.808V136.388C178.808 137.103 178.957 137.631 179.256 137.972C179.565 138.303 179.997 138.468 180.552 138.468C180.936 138.468 181.277 138.388 181.576 138.228C181.874 138.057 182.109 137.801 182.28 137.46C182.45 137.108 182.536 136.671 182.536 136.148V131.892H185.032V140.5H182.664V138.132L183.096 138.82C182.808 139.417 182.381 139.871 181.816 140.18C181.261 140.479 180.653 140.628 179.992 140.628ZM190.34 140.628C189.604 140.628 188.895 140.543 188.212 140.372C187.54 140.191 187.007 139.967 186.612 139.7L187.444 137.908C187.839 138.153 188.303 138.356 188.836 138.516C189.38 138.665 189.914 138.74 190.436 138.74C191.012 138.74 191.418 138.671 191.652 138.532C191.898 138.393 192.02 138.201 192.02 137.956C192.02 137.753 191.924 137.604 191.732 137.508C191.551 137.401 191.306 137.321 190.996 137.268C190.687 137.215 190.346 137.161 189.972 137.108C189.61 137.055 189.242 136.985 188.868 136.9C188.495 136.804 188.154 136.665 187.844 136.484C187.535 136.303 187.284 136.057 187.092 135.748C186.911 135.439 186.82 135.039 186.82 134.548C186.82 134.004 186.975 133.524 187.284 133.108C187.604 132.692 188.063 132.367 188.66 132.132C189.258 131.887 189.972 131.764 190.804 131.764C191.391 131.764 191.988 131.828 192.596 131.956C193.204 132.084 193.711 132.271 194.116 132.516L193.284 134.292C192.868 134.047 192.447 133.881 192.02 133.796C191.604 133.7 191.199 133.652 190.804 133.652C190.25 133.652 189.844 133.727 189.588 133.876C189.332 134.025 189.204 134.217 189.204 134.452C189.204 134.665 189.295 134.825 189.476 134.932C189.668 135.039 189.919 135.124 190.228 135.188C190.538 135.252 190.874 135.311 191.236 135.364C191.61 135.407 191.983 135.476 192.356 135.572C192.73 135.668 193.066 135.807 193.364 135.988C193.674 136.159 193.924 136.399 194.116 136.708C194.308 137.007 194.404 137.401 194.404 137.892C194.404 138.425 194.244 138.9 193.924 139.316C193.604 139.721 193.14 140.041 192.532 140.276C191.935 140.511 191.204 140.628 190.34 140.628ZM199.564 140.628C198.551 140.628 197.762 140.372 197.196 139.86C196.631 139.337 196.348 138.564 196.348 137.54V129.988H198.844V137.508C198.844 137.871 198.94 138.153 199.132 138.356C199.324 138.548 199.586 138.644 199.916 138.644C200.311 138.644 200.647 138.537 200.924 138.324L201.596 140.084C201.34 140.265 201.031 140.404 200.668 140.5C200.316 140.585 199.948 140.628 199.564 140.628ZM195.02 134.004V132.084H200.988V134.004H195.02Z" fill="#183865"/>
</svg>