<svg xmlns="http://www.w3.org/2000/svg" width="325" height="186" viewBox="0 0 325 186" fill="none">
<path d="M162.5 40.5L168.829 59.9803H189.312L172.741 72.0198L179.071 91.5L162.5 79.4607L145.929 91.5L152.258 72.0198L135.688 59.9803H156.17L162.5 40.5Z" stroke="#183865" stroke-width="4" stroke-linecap="round" stroke-linejoin="round"/>
<path d="M90.9264 139.5V128.3H96.0144C97.2304 128.3 98.3024 128.535 99.2304 129.004C100.158 129.463 100.884 130.108 101.406 130.94C101.929 131.772 102.19 132.759 102.19 133.9C102.19 135.031 101.929 136.017 101.406 136.86C100.884 137.692 100.158 138.343 99.2304 138.812C98.3024 139.271 97.2304 139.5 96.0144 139.5H90.9264ZM93.5184 137.372H95.8864C96.6331 137.372 97.2784 137.233 97.8224 136.956C98.3771 136.668 98.8038 136.263 99.1024 135.74C99.4118 135.217 99.5664 134.604 99.5664 133.9C99.5664 133.185 99.4118 132.572 99.1024 132.06C98.8038 131.537 98.3771 131.137 97.8224 130.86C97.2784 130.572 96.6331 130.428 95.8864 130.428H93.5184V137.372ZM104.069 139.5V130.892H106.453V133.324L106.117 132.62C106.373 132.012 106.784 131.553 107.349 131.244C107.915 130.924 108.603 130.764 109.413 130.764V133.068C109.307 133.057 109.211 133.052 109.125 133.052C109.04 133.041 108.949 133.036 108.853 133.036C108.171 133.036 107.616 133.233 107.189 133.628C106.773 134.012 106.565 134.615 106.565 135.436V139.5H104.069ZM111.013 139.5V130.892H113.509V139.5H111.013ZM112.261 129.692C111.802 129.692 111.429 129.559 111.141 129.292C110.853 129.025 110.709 128.695 110.709 128.3C110.709 127.905 110.853 127.575 111.141 127.308C111.429 127.041 111.802 126.908 112.261 126.908C112.72 126.908 113.093 127.036 113.381 127.292C113.669 127.537 113.813 127.857 113.813 128.252C113.813 128.668 113.669 129.015 113.381 129.292C113.104 129.559 112.73 129.692 112.261 129.692ZM118.261 139.5L114.645 130.892H117.221L120.229 138.3H118.949L122.069 130.892H124.469L120.837 139.5H118.261ZM125.588 139.5V130.892H128.084V139.5H125.588ZM126.836 129.692C126.377 129.692 126.004 129.559 125.716 129.292C125.428 129.025 125.284 128.695 125.284 128.3C125.284 127.905 125.428 127.575 125.716 127.308C126.004 127.041 126.377 126.908 126.836 126.908C127.295 126.908 127.668 127.036 127.956 127.292C128.244 127.537 128.388 127.857 128.388 128.252C128.388 128.668 128.244 129.015 127.956 129.292C127.679 129.559 127.305 129.692 126.836 129.692ZM135.732 130.764C136.415 130.764 137.023 130.903 137.556 131.18C138.1 131.447 138.527 131.863 138.836 132.428C139.146 132.983 139.3 133.697 139.3 134.572V139.5H136.804V134.956C136.804 134.263 136.65 133.751 136.34 133.42C136.042 133.089 135.615 132.924 135.06 132.924C134.666 132.924 134.308 133.009 133.988 133.18C133.679 133.34 133.434 133.591 133.252 133.932C133.082 134.273 132.996 134.711 132.996 135.244V139.5H130.5V130.892H132.884V133.276L132.436 132.556C132.746 131.98 133.188 131.537 133.764 131.228C134.34 130.919 134.996 130.764 135.732 130.764ZM145.773 142.732C144.963 142.732 144.179 142.631 143.421 142.428C142.675 142.236 142.051 141.943 141.549 141.548L142.541 139.756C142.904 140.055 143.363 140.289 143.917 140.46C144.483 140.641 145.037 140.732 145.581 140.732C146.467 140.732 147.107 140.535 147.501 140.14C147.907 139.745 148.109 139.159 148.109 138.38V137.084L148.269 134.924L148.237 132.748V130.892H150.605V138.06C150.605 139.66 150.189 140.839 149.357 141.596C148.525 142.353 147.331 142.732 145.773 142.732ZM145.389 139.084C144.589 139.084 143.864 138.913 143.213 138.572C142.573 138.22 142.056 137.735 141.661 137.116C141.277 136.487 141.085 135.756 141.085 134.924C141.085 134.081 141.277 133.351 141.661 132.732C142.056 132.103 142.573 131.617 143.213 131.276C143.864 130.935 144.589 130.764 145.389 130.764C146.115 130.764 146.755 130.913 147.309 131.212C147.864 131.5 148.296 131.953 148.605 132.572C148.915 133.18 149.069 133.964 149.069 134.924C149.069 135.873 148.915 136.657 148.605 137.276C148.296 137.884 147.864 138.337 147.309 138.636C146.755 138.935 146.115 139.084 145.389 139.084ZM145.885 137.036C146.323 137.036 146.712 136.951 147.053 136.78C147.395 136.599 147.661 136.348 147.853 136.028C148.045 135.708 148.141 135.34 148.141 134.924C148.141 134.497 148.045 134.129 147.853 133.82C147.661 133.5 147.395 133.255 147.053 133.084C146.712 132.903 146.323 132.812 145.885 132.812C145.448 132.812 145.059 132.903 144.717 133.084C144.376 133.255 144.104 133.5 143.901 133.82C143.709 134.129 143.613 134.497 143.613 134.924C143.613 135.34 143.709 135.708 143.901 136.028C144.104 136.348 144.376 136.599 144.717 136.78C145.059 136.951 145.448 137.036 145.885 137.036ZM162.748 139.628C161.99 139.628 161.34 139.468 160.796 139.148C160.252 138.828 159.836 138.343 159.548 137.692C159.26 137.031 159.116 136.199 159.116 135.196C159.116 134.183 159.265 133.351 159.564 132.7C159.873 132.049 160.3 131.564 160.844 131.244C161.388 130.924 162.022 130.764 162.748 130.764C163.558 130.764 164.284 130.945 164.924 131.308C165.574 131.671 166.086 132.183 166.46 132.844C166.844 133.505 167.036 134.289 167.036 135.196C167.036 136.092 166.844 136.871 166.46 137.532C166.086 138.193 165.574 138.711 164.924 139.084C164.284 139.447 163.558 139.628 162.748 139.628ZM157.66 139.5V127.628H160.156V132.636L159.996 135.18L160.044 137.74V139.5H157.66ZM162.316 137.58C162.732 137.58 163.1 137.484 163.42 137.292C163.75 137.1 164.012 136.828 164.204 136.476C164.406 136.113 164.508 135.687 164.508 135.196C164.508 134.695 164.406 134.268 164.204 133.916C164.012 133.564 163.75 133.292 163.42 133.1C163.1 132.908 162.732 132.812 162.316 132.812C161.9 132.812 161.526 132.908 161.196 133.1C160.865 133.292 160.604 133.564 160.412 133.916C160.22 134.268 160.124 134.695 160.124 135.196C160.124 135.687 160.22 136.113 160.412 136.476C160.604 136.828 160.865 137.1 161.196 137.292C161.526 137.484 161.9 137.58 162.316 137.58ZM172.439 139.628C171.724 139.628 171.084 139.489 170.519 139.212C169.964 138.935 169.532 138.513 169.223 137.948C168.913 137.372 168.759 136.641 168.759 135.756V130.892H171.255V135.388C171.255 136.103 171.404 136.631 171.703 136.972C172.012 137.303 172.444 137.468 172.999 137.468C173.383 137.468 173.724 137.388 174.023 137.228C174.321 137.057 174.556 136.801 174.727 136.46C174.897 136.108 174.983 135.671 174.983 135.148V130.892H177.479V139.5H175.111V137.132L175.543 137.82C175.255 138.417 174.828 138.871 174.263 139.18C173.708 139.479 173.1 139.628 172.439 139.628ZM182.787 139.628C182.051 139.628 181.342 139.543 180.659 139.372C179.987 139.191 179.454 138.967 179.059 138.7L179.891 136.908C180.286 137.153 180.75 137.356 181.283 137.516C181.827 137.665 182.36 137.74 182.883 137.74C183.459 137.74 183.864 137.671 184.099 137.532C184.344 137.393 184.467 137.201 184.467 136.956C184.467 136.753 184.371 136.604 184.179 136.508C183.998 136.401 183.752 136.321 183.443 136.268C183.134 136.215 182.792 136.161 182.419 136.108C182.056 136.055 181.688 135.985 181.315 135.9C180.942 135.804 180.6 135.665 180.291 135.484C179.982 135.303 179.731 135.057 179.539 134.748C179.358 134.439 179.267 134.039 179.267 133.548C179.267 133.004 179.422 132.524 179.731 132.108C180.051 131.692 180.51 131.367 181.107 131.132C181.704 130.887 182.419 130.764 183.251 130.764C183.838 130.764 184.435 130.828 185.043 130.956C185.651 131.084 186.158 131.271 186.563 131.516L185.731 133.292C185.315 133.047 184.894 132.881 184.467 132.796C184.051 132.7 183.646 132.652 183.251 132.652C182.696 132.652 182.291 132.727 182.035 132.876C181.779 133.025 181.651 133.217 181.651 133.452C181.651 133.665 181.742 133.825 181.923 133.932C182.115 134.039 182.366 134.124 182.675 134.188C182.984 134.252 183.32 134.311 183.683 134.364C184.056 134.407 184.43 134.476 184.803 134.572C185.176 134.668 185.512 134.807 185.811 134.988C186.12 135.159 186.371 135.399 186.563 135.708C186.755 136.007 186.851 136.401 186.851 136.892C186.851 137.425 186.691 137.9 186.371 138.316C186.051 138.721 185.587 139.041 184.979 139.276C184.382 139.511 183.651 139.628 182.787 139.628ZM188.491 139.5V130.892H190.987V139.5H188.491ZM189.739 129.692C189.28 129.692 188.907 129.559 188.619 129.292C188.331 129.025 188.187 128.695 188.187 128.3C188.187 127.905 188.331 127.575 188.619 127.308C188.907 127.041 189.28 126.908 189.739 126.908C190.198 126.908 190.571 127.036 190.859 127.292C191.147 127.537 191.291 127.857 191.291 128.252C191.291 128.668 191.147 129.015 190.859 129.292C190.582 129.559 190.208 129.692 189.739 129.692ZM198.636 130.764C199.318 130.764 199.926 130.903 200.46 131.18C201.004 131.447 201.43 131.863 201.74 132.428C202.049 132.983 202.204 133.697 202.204 134.572V139.5H199.708V134.956C199.708 134.263 199.553 133.751 199.244 133.42C198.945 133.089 198.518 132.924 197.964 132.924C197.569 132.924 197.212 133.009 196.892 133.18C196.582 133.34 196.337 133.591 196.156 133.932C195.985 134.273 195.9 134.711 195.9 135.244V139.5H193.404V130.892H195.788V133.276L195.34 132.556C195.649 131.98 196.092 131.537 196.668 131.228C197.244 130.919 197.9 130.764 198.636 130.764ZM208.901 139.628C207.919 139.628 207.055 139.436 206.309 139.052C205.573 138.668 205.002 138.145 204.597 137.484C204.191 136.812 203.989 136.049 203.989 135.196C203.989 134.332 204.186 133.569 204.581 132.908C204.986 132.236 205.535 131.713 206.229 131.34C206.922 130.956 207.706 130.764 208.581 130.764C209.423 130.764 210.181 130.945 210.853 131.308C211.535 131.66 212.074 132.172 212.469 132.844C212.863 133.505 213.061 134.3 213.061 135.228C213.061 135.324 213.055 135.436 213.045 135.564C213.034 135.681 213.023 135.793 213.013 135.9H206.021V134.444H211.701L210.741 134.876C210.741 134.428 210.65 134.039 210.469 133.708C210.287 133.377 210.037 133.121 209.717 132.94C209.397 132.748 209.023 132.652 208.597 132.652C208.17 132.652 207.791 132.748 207.461 132.94C207.141 133.121 206.89 133.383 206.709 133.724C206.527 134.055 206.437 134.449 206.437 134.908V135.292C206.437 135.761 206.538 136.177 206.741 136.54C206.954 136.892 207.247 137.164 207.621 137.356C208.005 137.537 208.453 137.628 208.965 137.628C209.423 137.628 209.823 137.559 210.165 137.42C210.517 137.281 210.837 137.073 211.125 136.796L212.453 138.236C212.058 138.684 211.562 139.031 210.965 139.276C210.367 139.511 209.679 139.628 208.901 139.628ZM217.718 139.628C216.982 139.628 216.273 139.543 215.59 139.372C214.918 139.191 214.385 138.967 213.99 138.7L214.822 136.908C215.217 137.153 215.681 137.356 216.214 137.516C216.758 137.665 217.292 137.74 217.814 137.74C218.39 137.74 218.796 137.671 219.03 137.532C219.276 137.393 219.398 137.201 219.398 136.956C219.398 136.753 219.302 136.604 219.11 136.508C218.929 136.401 218.684 136.321 218.374 136.268C218.065 136.215 217.724 136.161 217.35 136.108C216.988 136.055 216.62 135.985 216.246 135.9C215.873 135.804 215.532 135.665 215.222 135.484C214.913 135.303 214.662 135.057 214.47 134.748C214.289 134.439 214.198 134.039 214.198 133.548C214.198 133.004 214.353 132.524 214.662 132.108C214.982 131.692 215.441 131.367 216.038 131.132C216.636 130.887 217.35 130.764 218.182 130.764C218.769 130.764 219.366 130.828 219.974 130.956C220.582 131.084 221.089 131.271 221.494 131.516L220.662 133.292C220.246 133.047 219.825 132.881 219.398 132.796C218.982 132.7 218.577 132.652 218.182 132.652C217.628 132.652 217.222 132.727 216.966 132.876C216.71 133.025 216.582 133.217 216.582 133.452C216.582 133.665 216.673 133.825 216.854 133.932C217.046 134.039 217.297 134.124 217.606 134.188C217.916 134.252 218.252 134.311 218.614 134.364C218.988 134.407 219.361 134.476 219.734 134.572C220.108 134.668 220.444 134.807 220.742 134.988C221.052 135.159 221.302 135.399 221.494 135.708C221.686 136.007 221.782 136.401 221.782 136.892C221.782 137.425 221.622 137.9 221.302 138.316C220.982 138.721 220.518 139.041 219.91 139.276C219.313 139.511 218.582 139.628 217.718 139.628ZM226.318 139.628C225.582 139.628 224.873 139.543 224.19 139.372C223.518 139.191 222.985 138.967 222.59 138.7L223.422 136.908C223.817 137.153 224.281 137.356 224.814 137.516C225.358 137.665 225.892 137.74 226.414 137.74C226.99 137.74 227.396 137.671 227.63 137.532C227.876 137.393 227.998 137.201 227.998 136.956C227.998 136.753 227.902 136.604 227.71 136.508C227.529 136.401 227.284 136.321 226.974 136.268C226.665 136.215 226.324 136.161 225.95 136.108C225.588 136.055 225.22 135.985 224.846 135.9C224.473 135.804 224.132 135.665 223.822 135.484C223.513 135.303 223.262 135.057 223.07 134.748C222.889 134.439 222.798 134.039 222.798 133.548C222.798 133.004 222.953 132.524 223.262 132.108C223.582 131.692 224.041 131.367 224.638 131.132C225.236 130.887 225.95 130.764 226.782 130.764C227.369 130.764 227.966 130.828 228.574 130.956C229.182 131.084 229.689 131.271 230.094 131.516L229.262 133.292C228.846 133.047 228.425 132.881 227.998 132.796C227.582 132.7 227.177 132.652 226.782 132.652C226.228 132.652 225.822 132.727 225.566 132.876C225.31 133.025 225.182 133.217 225.182 133.452C225.182 133.665 225.273 133.825 225.454 133.932C225.646 134.039 225.897 134.124 226.206 134.188C226.516 134.252 226.852 134.311 227.214 134.364C227.588 134.407 227.961 134.476 228.334 134.572C228.708 134.668 229.044 134.807 229.342 134.988C229.652 135.159 229.902 135.399 230.094 135.708C230.286 136.007 230.382 136.401 230.382 136.892C230.382 137.425 230.222 137.9 229.902 138.316C229.582 138.721 229.118 139.041 228.51 139.276C227.913 139.511 227.182 139.628 226.318 139.628ZM72.4141 166.732C71.6034 166.732 70.8194 166.631 70.0621 166.428C69.3154 166.236 68.6914 165.943 68.1901 165.548L69.1821 163.756C69.5447 164.055 70.0034 164.289 70.5581 164.46C71.1234 164.641 71.6781 164.732 72.2221 164.732C73.1074 164.732 73.7474 164.535 74.1421 164.14C74.5474 163.745 74.7501 163.159 74.7501 162.38V161.084L74.9101 158.924L74.8781 156.748V154.892H77.2461V162.06C77.2461 163.66 76.8301 164.839 75.9981 165.596C75.1661 166.353 73.9714 166.732 72.4141 166.732ZM72.0301 163.084C71.2301 163.084 70.5047 162.913 69.8541 162.572C69.2141 162.22 68.6967 161.735 68.3021 161.116C67.9181 160.487 67.7261 159.756 67.7261 158.924C67.7261 158.081 67.9181 157.351 68.3021 156.732C68.6967 156.103 69.2141 155.617 69.8541 155.276C70.5047 154.935 71.2301 154.764 72.0301 154.764C72.7554 154.764 73.3954 154.913 73.9501 155.212C74.5047 155.5 74.9367 155.953 75.2461 156.572C75.5554 157.18 75.7101 157.964 75.7101 158.924C75.7101 159.873 75.5554 160.657 75.2461 161.276C74.9367 161.884 74.5047 162.337 73.9501 162.636C73.3954 162.935 72.7554 163.084 72.0301 163.084ZM72.5261 161.036C72.9634 161.036 73.3527 160.951 73.6941 160.78C74.0354 160.599 74.3021 160.348 74.4941 160.028C74.6861 159.708 74.7821 159.34 74.7821 158.924C74.7821 158.497 74.6861 158.129 74.4941 157.82C74.3021 157.5 74.0354 157.255 73.6941 157.084C73.3527 156.903 72.9634 156.812 72.5261 156.812C72.0887 156.812 71.6994 156.903 71.3581 157.084C71.0167 157.255 70.7447 157.5 70.5421 157.82C70.3501 158.129 70.2541 158.497 70.2541 158.924C70.2541 159.34 70.3501 159.708 70.5421 160.028C70.7447 160.348 71.0167 160.599 71.3581 160.78C71.6994 160.951 72.0887 161.036 72.5261 161.036ZM79.6692 163.5V154.892H82.0532V157.324L81.7172 156.62C81.9732 156.012 82.3839 155.553 82.9492 155.244C83.5145 154.924 84.2025 154.764 85.0132 154.764V157.068C84.9065 157.057 84.8105 157.052 84.7252 157.052C84.6399 157.041 84.5492 157.036 84.4532 157.036C83.7705 157.036 83.2159 157.233 82.7892 157.628C82.3732 158.012 82.1652 158.615 82.1652 159.436V163.5H79.6692ZM90.6308 163.628C89.7135 163.628 88.8975 163.436 88.1828 163.052C87.4788 162.668 86.9188 162.145 86.5028 161.484C86.0975 160.812 85.8948 160.049 85.8948 159.196C85.8948 158.332 86.0975 157.569 86.5028 156.908C86.9188 156.236 87.4788 155.713 88.1828 155.34C88.8975 154.956 89.7135 154.764 90.6308 154.764C91.5375 154.764 92.3481 154.956 93.0628 155.34C93.7775 155.713 94.3375 156.231 94.7428 156.892C95.1482 157.553 95.3508 158.321 95.3508 159.196C95.3508 160.049 95.1482 160.812 94.7428 161.484C94.3375 162.145 93.7775 162.668 93.0628 163.052C92.3481 163.436 91.5375 163.628 90.6308 163.628ZM90.6308 161.58C91.0468 161.58 91.4201 161.484 91.7508 161.292C92.0815 161.1 92.3428 160.828 92.5348 160.476C92.7268 160.113 92.8228 159.687 92.8228 159.196C92.8228 158.695 92.7268 158.268 92.5348 157.916C92.3428 157.564 92.0815 157.292 91.7508 157.1C91.4201 156.908 91.0468 156.812 90.6308 156.812C90.2148 156.812 89.8415 156.908 89.5108 157.1C89.1801 157.292 88.9135 157.564 88.7108 157.916C88.5188 158.268 88.4228 158.695 88.4228 159.196C88.4228 159.687 88.5188 160.113 88.7108 160.476C88.9135 160.828 89.1801 161.1 89.5108 161.292C89.8415 161.484 90.2148 161.58 90.6308 161.58ZM98.8528 163.5L95.7488 154.892H98.1008L100.677 162.3H99.5568L102.245 154.892H104.357L106.965 162.3H105.845L108.501 154.892H110.709L107.589 163.5H105.173L102.885 157.148H103.621L101.253 163.5H98.8528ZM115.724 163.628C114.71 163.628 113.921 163.372 113.356 162.86C112.79 162.337 112.508 161.564 112.508 160.54V152.988H115.004V160.508C115.004 160.871 115.1 161.153 115.292 161.356C115.484 161.548 115.745 161.644 116.076 161.644C116.47 161.644 116.806 161.537 117.084 161.324L117.756 163.084C117.5 163.265 117.19 163.404 116.828 163.5C116.476 163.585 116.108 163.628 115.724 163.628ZM111.18 157.004V155.084H117.148V157.004H111.18ZM124.489 154.764C125.171 154.764 125.779 154.903 126.313 155.18C126.857 155.447 127.283 155.863 127.593 156.428C127.902 156.983 128.057 157.697 128.057 158.572V163.5H125.561V158.956C125.561 158.263 125.406 157.751 125.097 157.42C124.798 157.089 124.371 156.924 123.817 156.924C123.422 156.924 123.065 157.009 122.745 157.18C122.435 157.34 122.19 157.591 122.009 157.932C121.838 158.273 121.753 158.711 121.753 159.244V163.5H119.257V151.628H121.753V157.276L121.193 156.556C121.502 155.98 121.945 155.537 122.521 155.228C123.097 154.919 123.753 154.764 124.489 154.764ZM140.33 163.5V161.82L140.17 161.452V158.444C140.17 157.911 140.005 157.495 139.674 157.196C139.354 156.897 138.858 156.748 138.186 156.748C137.728 156.748 137.274 156.823 136.826 156.972C136.389 157.111 136.016 157.303 135.706 157.548L134.81 155.804C135.28 155.473 135.845 155.217 136.506 155.036C137.168 154.855 137.84 154.764 138.522 154.764C139.834 154.764 140.853 155.073 141.578 155.692C142.304 156.311 142.666 157.276 142.666 158.588V163.5H140.33ZM137.706 163.628C137.034 163.628 136.458 163.516 135.978 163.292C135.498 163.057 135.13 162.743 134.874 162.348C134.618 161.953 134.49 161.511 134.49 161.02C134.49 160.508 134.613 160.06 134.858 159.676C135.114 159.292 135.514 158.993 136.058 158.78C136.602 158.556 137.312 158.444 138.186 158.444H140.474V159.9H138.458C137.872 159.9 137.466 159.996 137.242 160.188C137.029 160.38 136.922 160.62 136.922 160.908C136.922 161.228 137.045 161.484 137.29 161.676C137.546 161.857 137.893 161.948 138.33 161.948C138.746 161.948 139.12 161.852 139.45 161.66C139.781 161.457 140.021 161.164 140.17 160.78L140.554 161.932C140.373 162.487 140.042 162.908 139.562 163.196C139.082 163.484 138.464 163.628 137.706 163.628ZM150.257 154.764C150.94 154.764 151.548 154.903 152.081 155.18C152.625 155.447 153.052 155.863 153.361 156.428C153.671 156.983 153.825 157.697 153.825 158.572V163.5H151.329V158.956C151.329 158.263 151.175 157.751 150.865 157.42C150.567 157.089 150.14 156.924 149.585 156.924C149.191 156.924 148.833 157.009 148.513 157.18C148.204 157.34 147.959 157.591 147.777 157.932C147.607 158.273 147.521 158.711 147.521 159.244V163.5H145.025V154.892H147.409V157.276L146.961 156.556C147.271 155.98 147.713 155.537 148.289 155.228C148.865 154.919 149.521 154.764 150.257 154.764ZM159.946 163.628C159.136 163.628 158.405 163.447 157.754 163.084C157.104 162.711 156.586 162.193 156.202 161.532C155.829 160.871 155.642 160.092 155.642 159.196C155.642 158.289 155.829 157.505 156.202 156.844C156.586 156.183 157.104 155.671 157.754 155.308C158.405 154.945 159.136 154.764 159.946 154.764C160.672 154.764 161.306 154.924 161.85 155.244C162.394 155.564 162.816 156.049 163.114 156.7C163.413 157.351 163.562 158.183 163.562 159.196C163.562 160.199 163.418 161.031 163.13 161.692C162.842 162.343 162.426 162.828 161.882 163.148C161.349 163.468 160.704 163.628 159.946 163.628ZM160.378 161.58C160.784 161.58 161.152 161.484 161.482 161.292C161.813 161.1 162.074 160.828 162.266 160.476C162.469 160.113 162.57 159.687 162.57 159.196C162.57 158.695 162.469 158.268 162.266 157.916C162.074 157.564 161.813 157.292 161.482 157.1C161.152 156.908 160.784 156.812 160.378 156.812C159.962 156.812 159.589 156.908 159.258 157.1C158.928 157.292 158.661 157.564 158.458 157.916C158.266 158.268 158.17 158.695 158.17 159.196C158.17 159.687 158.266 160.113 158.458 160.476C158.661 160.828 158.928 161.1 159.258 161.292C159.589 161.484 159.962 161.58 160.378 161.58ZM162.634 163.5V161.74L162.682 159.18L162.522 156.636V151.628H165.018V163.5H162.634ZM176.332 163.628C175.35 163.628 174.486 163.436 173.74 163.052C173.004 162.668 172.433 162.145 172.028 161.484C171.622 160.812 171.42 160.049 171.42 159.196C171.42 158.332 171.617 157.569 172.012 156.908C172.417 156.236 172.966 155.713 173.66 155.34C174.353 154.956 175.137 154.764 176.012 154.764C176.854 154.764 177.612 154.945 178.284 155.308C178.966 155.66 179.505 156.172 179.9 156.844C180.294 157.505 180.492 158.3 180.492 159.228C180.492 159.324 180.486 159.436 180.476 159.564C180.465 159.681 180.454 159.793 180.444 159.9H173.452V158.444H179.132L178.172 158.876C178.172 158.428 178.081 158.039 177.9 157.708C177.718 157.377 177.468 157.121 177.148 156.94C176.828 156.748 176.454 156.652 176.028 156.652C175.601 156.652 175.222 156.748 174.892 156.94C174.572 157.121 174.321 157.383 174.14 157.724C173.958 158.055 173.868 158.449 173.868 158.908V159.292C173.868 159.761 173.969 160.177 174.172 160.54C174.385 160.892 174.678 161.164 175.052 161.356C175.436 161.537 175.884 161.628 176.396 161.628C176.854 161.628 177.254 161.559 177.596 161.42C177.948 161.281 178.268 161.073 178.556 160.796L179.884 162.236C179.489 162.684 178.993 163.031 178.396 163.276C177.798 163.511 177.11 163.628 176.332 163.628ZM180.931 163.5L184.787 158.444L184.739 159.82L181.043 154.892H183.843L186.179 158.108L185.123 158.14L187.539 154.892H190.195L186.483 159.772V158.428L190.323 163.5H187.491L185.043 160.076L186.083 160.22L183.651 163.5H180.931ZM196.723 163.628C195.997 163.628 195.363 163.468 194.819 163.148C194.275 162.828 193.848 162.343 193.539 161.692C193.24 161.031 193.091 160.199 193.091 159.196C193.091 158.183 193.235 157.351 193.523 156.7C193.811 156.049 194.227 155.564 194.771 155.244C195.315 154.924 195.965 154.764 196.723 154.764C197.533 154.764 198.259 154.951 198.899 155.324C199.549 155.687 200.061 156.199 200.435 156.86C200.819 157.521 201.011 158.3 201.011 159.196C201.011 160.103 200.819 160.887 200.435 161.548C200.061 162.209 199.549 162.721 198.899 163.084C198.259 163.447 197.533 163.628 196.723 163.628ZM191.635 166.604V154.892H194.019V156.652L193.971 159.212L194.131 161.756V166.604H191.635ZM196.291 161.58C196.707 161.58 197.075 161.484 197.395 161.292C197.725 161.1 197.987 160.828 198.179 160.476C198.381 160.113 198.483 159.687 198.483 159.196C198.483 158.695 198.381 158.268 198.179 157.916C197.987 157.564 197.725 157.292 197.395 157.1C197.075 156.908 196.707 156.812 196.291 156.812C195.875 156.812 195.501 156.908 195.171 157.1C194.84 157.292 194.579 157.564 194.387 157.916C194.195 158.268 194.099 158.695 194.099 159.196C194.099 159.687 194.195 160.113 194.387 160.476C194.579 160.828 194.84 161.1 195.171 161.292C195.501 161.484 195.875 161.58 196.291 161.58ZM207.921 163.5V161.82L207.761 161.452V158.444C207.761 157.911 207.596 157.495 207.265 157.196C206.945 156.897 206.449 156.748 205.777 156.748C205.318 156.748 204.865 156.823 204.417 156.972C203.98 157.111 203.606 157.303 203.297 157.548L202.401 155.804C202.87 155.473 203.436 155.217 204.097 155.036C204.758 154.855 205.43 154.764 206.113 154.764C207.425 154.764 208.444 155.073 209.169 155.692C209.894 156.311 210.257 157.276 210.257 158.588V163.5H207.921ZM205.297 163.628C204.625 163.628 204.049 163.516 203.569 163.292C203.089 163.057 202.721 162.743 202.465 162.348C202.209 161.953 202.081 161.511 202.081 161.02C202.081 160.508 202.204 160.06 202.449 159.676C202.705 159.292 203.105 158.993 203.649 158.78C204.193 158.556 204.902 158.444 205.777 158.444H208.065V159.9H206.049C205.462 159.9 205.057 159.996 204.833 160.188C204.62 160.38 204.513 160.62 204.513 160.908C204.513 161.228 204.636 161.484 204.881 161.676C205.137 161.857 205.484 161.948 205.921 161.948C206.337 161.948 206.71 161.852 207.041 161.66C207.372 161.457 207.612 161.164 207.761 160.78L208.145 161.932C207.964 162.487 207.633 162.908 207.153 163.196C206.673 163.484 206.054 163.628 205.297 163.628ZM217.848 154.764C218.531 154.764 219.139 154.903 219.672 155.18C220.216 155.447 220.643 155.863 220.952 156.428C221.261 156.983 221.416 157.697 221.416 158.572V163.5H218.92V158.956C218.92 158.263 218.765 157.751 218.456 157.42C218.157 157.089 217.731 156.924 217.176 156.924C216.781 156.924 216.424 157.009 216.104 157.18C215.795 157.34 215.549 157.591 215.368 157.932C215.197 158.273 215.112 158.711 215.112 159.244V163.5H212.616V154.892H215V157.276L214.552 156.556C214.861 155.98 215.304 155.537 215.88 155.228C216.456 154.919 217.112 154.764 217.848 154.764ZM226.675 163.628C225.939 163.628 225.229 163.543 224.547 163.372C223.875 163.191 223.341 162.967 222.947 162.7L223.779 160.908C224.173 161.153 224.637 161.356 225.171 161.516C225.715 161.665 226.248 161.74 226.771 161.74C227.347 161.74 227.752 161.671 227.987 161.532C228.232 161.393 228.355 161.201 228.355 160.956C228.355 160.753 228.259 160.604 228.067 160.508C227.885 160.401 227.64 160.321 227.331 160.268C227.021 160.215 226.68 160.161 226.307 160.108C225.944 160.055 225.576 159.985 225.203 159.9C224.829 159.804 224.488 159.665 224.179 159.484C223.869 159.303 223.619 159.057 223.427 158.748C223.245 158.439 223.155 158.039 223.155 157.548C223.155 157.004 223.309 156.524 223.619 156.108C223.939 155.692 224.397 155.367 224.995 155.132C225.592 154.887 226.307 154.764 227.139 154.764C227.725 154.764 228.323 154.828 228.931 154.956C229.539 155.084 230.045 155.271 230.451 155.516L229.619 157.292C229.203 157.047 228.781 156.881 228.355 156.796C227.939 156.7 227.533 156.652 227.139 156.652C226.584 156.652 226.179 156.727 225.923 156.876C225.667 157.025 225.539 157.217 225.539 157.452C225.539 157.665 225.629 157.825 225.811 157.932C226.003 158.039 226.253 158.124 226.563 158.188C226.872 158.252 227.208 158.311 227.571 158.364C227.944 158.407 228.317 158.476 228.691 158.572C229.064 158.668 229.4 158.807 229.699 158.988C230.008 159.159 230.259 159.399 230.451 159.708C230.643 160.007 230.739 160.401 230.739 160.892C230.739 161.425 230.579 161.9 230.259 162.316C229.939 162.721 229.475 163.041 228.867 163.276C228.269 163.511 227.539 163.628 226.675 163.628ZM232.379 163.5V154.892H234.875V163.5H232.379ZM233.627 153.692C233.168 153.692 232.795 153.559 232.507 153.292C232.219 153.025 232.075 152.695 232.075 152.3C232.075 151.905 232.219 151.575 232.507 151.308C232.795 151.041 233.168 150.908 233.627 150.908C234.085 150.908 234.459 151.036 234.747 151.292C235.035 151.537 235.179 151.857 235.179 152.252C235.179 152.668 235.035 153.015 234.747 153.292C234.469 153.559 234.096 153.692 233.627 153.692ZM241.387 163.628C240.47 163.628 239.654 163.436 238.939 163.052C238.235 162.668 237.675 162.145 237.259 161.484C236.854 160.812 236.651 160.049 236.651 159.196C236.651 158.332 236.854 157.569 237.259 156.908C237.675 156.236 238.235 155.713 238.939 155.34C239.654 154.956 240.47 154.764 241.387 154.764C242.294 154.764 243.104 154.956 243.819 155.34C244.534 155.713 245.094 156.231 245.499 156.892C245.904 157.553 246.107 158.321 246.107 159.196C246.107 160.049 245.904 160.812 245.499 161.484C245.094 162.145 244.534 162.668 243.819 163.052C243.104 163.436 242.294 163.628 241.387 163.628ZM241.387 161.58C241.803 161.58 242.176 161.484 242.507 161.292C242.838 161.1 243.099 160.828 243.291 160.476C243.483 160.113 243.579 159.687 243.579 159.196C243.579 158.695 243.483 158.268 243.291 157.916C243.099 157.564 242.838 157.292 242.507 157.1C242.176 156.908 241.803 156.812 241.387 156.812C240.971 156.812 240.598 156.908 240.267 157.1C239.936 157.292 239.67 157.564 239.467 157.916C239.275 158.268 239.179 158.695 239.179 159.196C239.179 159.687 239.275 160.113 239.467 160.476C239.67 160.828 239.936 161.1 240.267 161.292C240.598 161.484 240.971 161.58 241.387 161.58ZM253.107 154.764C253.79 154.764 254.398 154.903 254.931 155.18C255.475 155.447 255.902 155.863 256.211 156.428C256.521 156.983 256.675 157.697 256.675 158.572V163.5H254.179V158.956C254.179 158.263 254.025 157.751 253.715 157.42C253.417 157.089 252.99 156.924 252.435 156.924C252.041 156.924 251.683 157.009 251.363 157.18C251.054 157.34 250.809 157.591 250.627 157.932C250.457 158.273 250.371 158.711 250.371 159.244V163.5H247.875V154.892H250.259V157.276L249.811 156.556C250.121 155.98 250.563 155.537 251.139 155.228C251.715 154.919 252.371 154.764 253.107 154.764Z" fill="#183865"/>
</svg>