<svg xmlns="http://www.w3.org/2000/svg" width="325" height="181" viewBox="0 0 325 181" fill="none">
<path d="M162.5 40L168.83 59.4803H189.312L172.742 71.5198L179.071 91L162.5 78.9607L145.929 91L152.259 71.5198L135.688 59.4803H156.17L162.5 40Z" stroke="#183865" stroke-width="4" stroke-linecap="round" stroke-linejoin="round"/>
<path d="M88.1649 139.192C87.2795 139.192 86.4582 139.048 85.7009 138.76C84.9542 138.472 84.3035 138.067 83.7489 137.544C83.2049 137.021 82.7782 136.408 82.4689 135.704C82.1702 135 82.0209 134.232 82.0209 133.4C82.0209 132.568 82.1702 131.8 82.4689 131.096C82.7782 130.392 83.2102 129.779 83.7649 129.256C84.3195 128.733 84.9702 128.328 85.7169 128.04C86.4635 127.752 87.2742 127.608 88.1489 127.608C89.0342 127.608 89.8449 127.752 90.5809 128.04C91.3275 128.328 91.9729 128.733 92.5169 129.256C93.0715 129.779 93.5035 130.392 93.8129 131.096C94.1222 131.789 94.2769 132.557 94.2769 133.4C94.2769 134.232 94.1222 135.005 93.8129 135.72C93.5035 136.424 93.0715 137.037 92.5169 137.56C91.9729 138.072 91.3275 138.472 90.5809 138.76C89.8449 139.048 89.0395 139.192 88.1649 139.192ZM88.1489 136.984C88.6502 136.984 89.1089 136.899 89.5249 136.728C89.9515 136.557 90.3249 136.312 90.6449 135.992C90.9649 135.672 91.2102 135.293 91.3809 134.856C91.5622 134.419 91.6529 133.933 91.6529 133.4C91.6529 132.867 91.5622 132.381 91.3809 131.944C91.2102 131.507 90.9649 131.128 90.6449 130.808C90.3355 130.488 89.9675 130.243 89.5409 130.072C89.1142 129.901 88.6502 129.816 88.1489 129.816C87.6475 129.816 87.1835 129.901 86.7569 130.072C86.3409 130.243 85.9729 130.488 85.6529 130.808C85.3329 131.128 85.0822 131.507 84.9009 131.944C84.7302 132.381 84.6449 132.867 84.6449 133.4C84.6449 133.923 84.7302 134.408 84.9009 134.856C85.0822 135.293 85.3275 135.672 85.6369 135.992C85.9569 136.312 86.3302 136.557 86.7569 136.728C87.1835 136.899 87.6475 136.984 88.1489 136.984ZM96.4529 139V130.2C96.4529 129.229 96.7409 128.456 97.3169 127.88C97.8929 127.293 98.7142 127 99.7809 127C100.144 127 100.49 127.037 100.821 127.112C101.162 127.187 101.45 127.304 101.685 127.464L101.029 129.272C100.89 129.176 100.736 129.101 100.565 129.048C100.394 128.995 100.213 128.968 100.021 128.968C99.6582 128.968 99.3755 129.075 99.1729 129.288C98.9809 129.491 98.8849 129.8 98.8849 130.216V131.016L98.9489 132.088V139H96.4529ZM95.1249 132.504V130.584H101.093V132.504H95.1249ZM102.865 139V130.2C102.865 129.229 103.153 128.456 103.729 127.88C104.305 127.293 105.127 127 106.193 127C106.556 127 106.903 127.037 107.233 127.112C107.575 127.187 107.863 127.304 108.097 127.464L107.441 129.272C107.303 129.176 107.148 129.101 106.977 129.048C106.807 128.995 106.625 128.968 106.433 128.968C106.071 128.968 105.788 129.075 105.585 129.288C105.393 129.491 105.297 129.8 105.297 130.216V131.016L105.361 132.088V139H102.865ZM101.537 132.504V130.584H107.505V132.504H101.537ZM113.011 139.128C112.03 139.128 111.166 138.936 110.419 138.552C109.683 138.168 109.113 137.645 108.707 136.984C108.302 136.312 108.099 135.549 108.099 134.696C108.099 133.832 108.297 133.069 108.691 132.408C109.097 131.736 109.646 131.213 110.339 130.84C111.033 130.456 111.817 130.264 112.691 130.264C113.534 130.264 114.291 130.445 114.963 130.808C115.646 131.16 116.185 131.672 116.579 132.344C116.974 133.005 117.171 133.8 117.171 134.728C117.171 134.824 117.166 134.936 117.155 135.064C117.145 135.181 117.134 135.293 117.123 135.4H110.131V133.944H115.811L114.851 134.376C114.851 133.928 114.761 133.539 114.579 133.208C114.398 132.877 114.147 132.621 113.827 132.44C113.507 132.248 113.134 132.152 112.707 132.152C112.281 132.152 111.902 132.248 111.571 132.44C111.251 132.621 111.001 132.883 110.819 133.224C110.638 133.555 110.547 133.949 110.547 134.408V134.792C110.547 135.261 110.649 135.677 110.851 136.04C111.065 136.392 111.358 136.664 111.731 136.856C112.115 137.037 112.563 137.128 113.075 137.128C113.534 137.128 113.934 137.059 114.275 136.92C114.627 136.781 114.947 136.573 115.235 136.296L116.563 137.736C116.169 138.184 115.673 138.531 115.075 138.776C114.478 139.011 113.79 139.128 113.011 139.128ZM118.933 139V130.392H121.317V132.824L120.981 132.12C121.237 131.512 121.648 131.053 122.213 130.744C122.779 130.424 123.467 130.264 124.277 130.264V132.568C124.171 132.557 124.075 132.552 123.989 132.552C123.904 132.541 123.813 132.536 123.717 132.536C123.035 132.536 122.48 132.733 122.053 133.128C121.637 133.512 121.429 134.115 121.429 134.936V139H118.933ZM135.835 139V137.32L135.675 136.952V133.944C135.675 133.411 135.51 132.995 135.179 132.696C134.859 132.397 134.363 132.248 133.691 132.248C133.232 132.248 132.779 132.323 132.331 132.472C131.894 132.611 131.52 132.803 131.211 133.048L130.315 131.304C130.784 130.973 131.35 130.717 132.011 130.536C132.672 130.355 133.344 130.264 134.027 130.264C135.339 130.264 136.358 130.573 137.083 131.192C137.808 131.811 138.171 132.776 138.171 134.088V139H135.835ZM133.211 139.128C132.539 139.128 131.963 139.016 131.483 138.792C131.003 138.557 130.635 138.243 130.379 137.848C130.123 137.453 129.995 137.011 129.995 136.52C129.995 136.008 130.118 135.56 130.363 135.176C130.619 134.792 131.019 134.493 131.563 134.28C132.107 134.056 132.816 133.944 133.691 133.944H135.979V135.4H133.963C133.376 135.4 132.971 135.496 132.747 135.688C132.534 135.88 132.427 136.12 132.427 136.408C132.427 136.728 132.55 136.984 132.795 137.176C133.051 137.357 133.398 137.448 133.835 137.448C134.251 137.448 134.624 137.352 134.955 137.16C135.286 136.957 135.526 136.664 135.675 136.28L136.059 137.432C135.878 137.987 135.547 138.408 135.067 138.696C134.587 138.984 133.968 139.128 133.211 139.128ZM147.129 139L144.025 130.392H146.377L148.953 137.8H147.833L150.521 130.392H152.633L155.241 137.8H154.121L156.777 130.392H158.985L155.865 139H153.449L151.161 132.648H151.897L149.529 139H147.129ZM160.246 139V130.392H162.742V139H160.246ZM161.494 129.192C161.035 129.192 160.662 129.059 160.374 128.792C160.086 128.525 159.942 128.195 159.942 127.8C159.942 127.405 160.086 127.075 160.374 126.808C160.662 126.541 161.035 126.408 161.494 126.408C161.952 126.408 162.326 126.536 162.614 126.792C162.902 127.037 163.046 127.357 163.046 127.752C163.046 128.168 162.902 128.515 162.614 128.792C162.336 129.059 161.963 129.192 161.494 129.192ZM168.854 139.128C168.044 139.128 167.313 138.947 166.662 138.584C166.012 138.211 165.494 137.693 165.11 137.032C164.737 136.371 164.55 135.592 164.55 134.696C164.55 133.789 164.737 133.005 165.11 132.344C165.494 131.683 166.012 131.171 166.662 130.808C167.313 130.445 168.044 130.264 168.854 130.264C169.58 130.264 170.214 130.424 170.758 130.744C171.302 131.064 171.724 131.549 172.022 132.2C172.321 132.851 172.47 133.683 172.47 134.696C172.47 135.699 172.326 136.531 172.038 137.192C171.75 137.843 171.334 138.328 170.79 138.648C170.257 138.968 169.612 139.128 168.854 139.128ZM169.286 137.08C169.692 137.08 170.06 136.984 170.39 136.792C170.721 136.6 170.982 136.328 171.174 135.976C171.377 135.613 171.478 135.187 171.478 134.696C171.478 134.195 171.377 133.768 171.174 133.416C170.982 133.064 170.721 132.792 170.39 132.6C170.06 132.408 169.692 132.312 169.286 132.312C168.87 132.312 168.497 132.408 168.166 132.6C167.836 132.792 167.569 133.064 167.366 133.416C167.174 133.768 167.078 134.195 167.078 134.696C167.078 135.187 167.174 135.613 167.366 135.976C167.569 136.328 167.836 136.6 168.166 136.792C168.497 136.984 168.87 137.08 169.286 137.08ZM171.542 139V137.24L171.59 134.68L171.43 132.136V127.128H173.926V139H171.542ZM180.608 139.128C179.627 139.128 178.763 138.936 178.016 138.552C177.28 138.168 176.71 137.645 176.304 136.984C175.899 136.312 175.696 135.549 175.696 134.696C175.696 133.832 175.894 133.069 176.288 132.408C176.694 131.736 177.243 131.213 177.936 130.84C178.63 130.456 179.414 130.264 180.288 130.264C181.131 130.264 181.888 130.445 182.56 130.808C183.243 131.16 183.782 131.672 184.176 132.344C184.571 133.005 184.768 133.8 184.768 134.728C184.768 134.824 184.763 134.936 184.752 135.064C184.742 135.181 184.731 135.293 184.72 135.4H177.728V133.944H183.408L182.448 134.376C182.448 133.928 182.358 133.539 182.176 133.208C181.995 132.877 181.744 132.621 181.424 132.44C181.104 132.248 180.731 132.152 180.304 132.152C179.878 132.152 179.499 132.248 179.168 132.44C178.848 132.621 178.598 132.883 178.416 133.224C178.235 133.555 178.144 133.949 178.144 134.408V134.792C178.144 135.261 178.246 135.677 178.448 136.04C178.662 136.392 178.955 136.664 179.328 136.856C179.712 137.037 180.16 137.128 180.672 137.128C181.131 137.128 181.531 137.059 181.872 136.92C182.224 136.781 182.544 136.573 182.832 136.296L184.16 137.736C183.766 138.184 183.27 138.531 182.672 138.776C182.075 139.011 181.387 139.128 180.608 139.128ZM191.161 139V130.392H193.545V132.824L193.209 132.12C193.465 131.512 193.876 131.053 194.441 130.744C195.007 130.424 195.695 130.264 196.505 130.264V132.568C196.399 132.557 196.303 132.552 196.217 132.552C196.132 132.541 196.041 132.536 195.945 132.536C195.263 132.536 194.708 132.733 194.281 133.128C193.865 133.512 193.657 134.115 193.657 134.936V139H191.161ZM202.807 139V137.32L202.647 136.952V133.944C202.647 133.411 202.482 132.995 202.151 132.696C201.831 132.397 201.335 132.248 200.663 132.248C200.204 132.248 199.751 132.323 199.303 132.472C198.866 132.611 198.492 132.803 198.183 133.048L197.287 131.304C197.756 130.973 198.322 130.717 198.983 130.536C199.644 130.355 200.316 130.264 200.999 130.264C202.311 130.264 203.33 130.573 204.055 131.192C204.78 131.811 205.143 132.776 205.143 134.088V139H202.807ZM200.183 139.128C199.511 139.128 198.935 139.016 198.455 138.792C197.975 138.557 197.607 138.243 197.351 137.848C197.095 137.453 196.967 137.011 196.967 136.52C196.967 136.008 197.09 135.56 197.335 135.176C197.591 134.792 197.991 134.493 198.535 134.28C199.079 134.056 199.788 133.944 200.663 133.944H202.951V135.4H200.935C200.348 135.4 199.943 135.496 199.719 135.688C199.506 135.88 199.399 136.12 199.399 136.408C199.399 136.728 199.522 136.984 199.767 137.176C200.023 137.357 200.37 137.448 200.807 137.448C201.223 137.448 201.596 137.352 201.927 137.16C202.258 136.957 202.498 136.664 202.647 136.28L203.031 137.432C202.85 137.987 202.519 138.408 202.039 138.696C201.559 138.984 200.94 139.128 200.183 139.128ZM212.734 130.264C213.417 130.264 214.025 130.403 214.558 130.68C215.102 130.947 215.529 131.363 215.838 131.928C216.147 132.483 216.302 133.197 216.302 134.072V139H213.806V134.456C213.806 133.763 213.651 133.251 213.342 132.92C213.043 132.589 212.617 132.424 212.062 132.424C211.667 132.424 211.31 132.509 210.99 132.68C210.681 132.84 210.435 133.091 210.254 133.432C210.083 133.773 209.998 134.211 209.998 134.744V139H207.502V130.392H209.886V132.776L209.438 132.056C209.747 131.48 210.19 131.037 210.766 130.728C211.342 130.419 211.998 130.264 212.734 130.264ZM222.775 142.232C221.964 142.232 221.18 142.131 220.423 141.928C219.676 141.736 219.052 141.443 218.551 141.048L219.543 139.256C219.906 139.555 220.364 139.789 220.919 139.96C221.484 140.141 222.039 140.232 222.583 140.232C223.468 140.232 224.108 140.035 224.503 139.64C224.908 139.245 225.111 138.659 225.111 137.88V136.584L225.271 134.424L225.239 132.248V130.392H227.607V137.56C227.607 139.16 227.191 140.339 226.359 141.096C225.527 141.853 224.332 142.232 222.775 142.232ZM222.391 138.584C221.591 138.584 220.866 138.413 220.215 138.072C219.575 137.72 219.058 137.235 218.663 136.616C218.279 135.987 218.087 135.256 218.087 134.424C218.087 133.581 218.279 132.851 218.663 132.232C219.058 131.603 219.575 131.117 220.215 130.776C220.866 130.435 221.591 130.264 222.391 130.264C223.116 130.264 223.756 130.413 224.311 130.712C224.866 131 225.298 131.453 225.607 132.072C225.916 132.68 226.071 133.464 226.071 134.424C226.071 135.373 225.916 136.157 225.607 136.776C225.298 137.384 224.866 137.837 224.311 138.136C223.756 138.435 223.116 138.584 222.391 138.584ZM222.887 136.536C223.324 136.536 223.714 136.451 224.055 136.28C224.396 136.099 224.663 135.848 224.855 135.528C225.047 135.208 225.143 134.84 225.143 134.424C225.143 133.997 225.047 133.629 224.855 133.32C224.663 133 224.396 132.755 224.055 132.584C223.714 132.403 223.324 132.312 222.887 132.312C222.45 132.312 222.06 132.403 221.719 132.584C221.378 132.755 221.106 133 220.903 133.32C220.711 133.629 220.615 133.997 220.615 134.424C220.615 134.84 220.711 135.208 220.903 135.528C221.106 135.848 221.378 136.099 221.719 136.28C222.06 136.451 222.45 136.536 222.887 136.536ZM234.302 139.128C233.321 139.128 232.457 138.936 231.71 138.552C230.974 138.168 230.403 137.645 229.998 136.984C229.593 136.312 229.39 135.549 229.39 134.696C229.39 133.832 229.587 133.069 229.982 132.408C230.387 131.736 230.937 131.213 231.63 130.84C232.323 130.456 233.107 130.264 233.982 130.264C234.825 130.264 235.582 130.445 236.254 130.808C236.937 131.16 237.475 131.672 237.87 132.344C238.265 133.005 238.462 133.8 238.462 134.728C238.462 134.824 238.457 134.936 238.446 135.064C238.435 135.181 238.425 135.293 238.414 135.4H231.422V133.944H237.102L236.142 134.376C236.142 133.928 236.051 133.539 235.87 133.208C235.689 132.877 235.438 132.621 235.118 132.44C234.798 132.248 234.425 132.152 233.998 132.152C233.571 132.152 233.193 132.248 232.862 132.44C232.542 132.621 232.291 132.883 232.11 133.224C231.929 133.555 231.838 133.949 231.838 134.408V134.792C231.838 135.261 231.939 135.677 232.142 136.04C232.355 136.392 232.649 136.664 233.022 136.856C233.406 137.037 233.854 137.128 234.366 137.128C234.825 137.128 235.225 137.059 235.566 136.92C235.918 136.781 236.238 136.573 236.526 136.296L237.854 137.736C237.459 138.184 236.963 138.531 236.366 138.776C235.769 139.011 235.081 139.128 234.302 139.128ZM76.4121 163.128C75.4947 163.128 74.6787 162.936 73.9641 162.552C73.2601 162.168 72.7001 161.645 72.2841 160.984C71.8787 160.312 71.6761 159.549 71.6761 158.696C71.6761 157.832 71.8787 157.069 72.2841 156.408C72.7001 155.736 73.2601 155.213 73.9641 154.84C74.6787 154.456 75.4947 154.264 76.4121 154.264C77.3187 154.264 78.1294 154.456 78.8441 154.84C79.5587 155.213 80.1187 155.731 80.5241 156.392C80.9294 157.053 81.1321 157.821 81.1321 158.696C81.1321 159.549 80.9294 160.312 80.5241 160.984C80.1187 161.645 79.5587 162.168 78.8441 162.552C78.1294 162.936 77.3187 163.128 76.4121 163.128ZM76.4121 161.08C76.8281 161.08 77.2014 160.984 77.5321 160.792C77.8627 160.6 78.1241 160.328 78.3161 159.976C78.5081 159.613 78.6041 159.187 78.6041 158.696C78.6041 158.195 78.5081 157.768 78.3161 157.416C78.1241 157.064 77.8627 156.792 77.5321 156.6C77.2014 156.408 76.8281 156.312 76.4121 156.312C75.9961 156.312 75.6227 156.408 75.2921 156.6C74.9614 156.792 74.6947 157.064 74.4921 157.416C74.3001 157.768 74.2041 158.195 74.2041 158.696C74.2041 159.187 74.3001 159.613 74.4921 159.976C74.6947 160.328 74.9614 160.6 75.2921 160.792C75.6227 160.984 75.9961 161.08 76.4121 161.08ZM83.2044 163V154.2C83.2044 153.229 83.4924 152.456 84.0684 151.88C84.6444 151.293 85.4658 151 86.5324 151C86.8951 151 87.2418 151.037 87.5724 151.112C87.9138 151.187 88.2018 151.304 88.4364 151.464L87.7804 153.272C87.6418 153.176 87.4871 153.101 87.3164 153.048C87.1458 152.995 86.9644 152.968 86.7724 152.968C86.4098 152.968 86.1271 153.075 85.9244 153.288C85.7324 153.491 85.6364 153.8 85.6364 154.216V155.016L85.7004 156.088V163H83.2044ZM81.8764 156.504V154.584H87.8444V156.504H81.8764ZM98.9072 163.128C98.1819 163.128 97.5472 162.968 97.0032 162.648C96.4592 162.328 96.0325 161.843 95.7232 161.192C95.4245 160.531 95.2752 159.699 95.2752 158.696C95.2752 157.683 95.4192 156.851 95.7072 156.2C95.9952 155.549 96.4112 155.064 96.9552 154.744C97.4992 154.424 98.1499 154.264 98.9072 154.264C99.7179 154.264 100.443 154.451 101.083 154.824C101.734 155.187 102.246 155.699 102.619 156.36C103.003 157.021 103.195 157.8 103.195 158.696C103.195 159.603 103.003 160.387 102.619 161.048C102.246 161.709 101.734 162.221 101.083 162.584C100.443 162.947 99.7179 163.128 98.9072 163.128ZM93.8192 166.104V154.392H96.2032V156.152L96.1552 158.712L96.3152 161.256V166.104H93.8192ZM98.4752 161.08C98.8912 161.08 99.2592 160.984 99.5792 160.792C99.9099 160.6 100.171 160.328 100.363 159.976C100.566 159.613 100.667 159.187 100.667 158.696C100.667 158.195 100.566 157.768 100.363 157.416C100.171 157.064 99.9099 156.792 99.5792 156.6C99.2592 156.408 98.8912 156.312 98.4752 156.312C98.0592 156.312 97.6859 156.408 97.3552 156.6C97.0245 156.792 96.7632 157.064 96.5712 157.416C96.3792 157.768 96.2832 158.195 96.2832 158.696C96.2832 159.187 96.3792 159.613 96.5712 159.976C96.7632 160.328 97.0245 160.6 97.3552 160.792C97.6859 160.984 98.0592 161.08 98.4752 161.08ZM104.966 163V154.392H107.35V156.824L107.014 156.12C107.27 155.512 107.681 155.053 108.246 154.744C108.811 154.424 109.499 154.264 110.31 154.264V156.568C110.203 156.557 110.107 156.552 110.022 156.552C109.937 156.541 109.846 156.536 109.75 156.536C109.067 156.536 108.513 156.733 108.086 157.128C107.67 157.512 107.462 158.115 107.462 158.936V163H104.966ZM115.928 163.128C115.01 163.128 114.194 162.936 113.48 162.552C112.776 162.168 112.216 161.645 111.8 160.984C111.394 160.312 111.192 159.549 111.192 158.696C111.192 157.832 111.394 157.069 111.8 156.408C112.216 155.736 112.776 155.213 113.48 154.84C114.194 154.456 115.01 154.264 115.928 154.264C116.834 154.264 117.645 154.456 118.36 154.84C119.074 155.213 119.634 155.731 120.04 156.392C120.445 157.053 120.648 157.821 120.648 158.696C120.648 159.549 120.445 160.312 120.04 160.984C119.634 161.645 119.074 162.168 118.36 162.552C117.645 162.936 116.834 163.128 115.928 163.128ZM115.928 161.08C116.344 161.08 116.717 160.984 117.048 160.792C117.378 160.6 117.64 160.328 117.832 159.976C118.024 159.613 118.12 159.187 118.12 158.696C118.12 158.195 118.024 157.768 117.832 157.416C117.64 157.064 117.378 156.792 117.048 156.6C116.717 156.408 116.344 156.312 115.928 156.312C115.512 156.312 115.138 156.408 114.808 156.6C114.477 156.792 114.21 157.064 114.008 157.416C113.816 157.768 113.72 158.195 113.72 158.696C113.72 159.187 113.816 159.613 114.008 159.976C114.21 160.328 114.477 160.6 114.808 160.792C115.138 160.984 115.512 161.08 115.928 161.08ZM126.112 163.128C125.301 163.128 124.571 162.947 123.92 162.584C123.269 162.211 122.752 161.693 122.368 161.032C121.995 160.371 121.808 159.592 121.808 158.696C121.808 157.789 121.995 157.005 122.368 156.344C122.752 155.683 123.269 155.171 123.92 154.808C124.571 154.445 125.301 154.264 126.112 154.264C126.837 154.264 127.472 154.424 128.016 154.744C128.56 155.064 128.981 155.549 129.28 156.2C129.579 156.851 129.728 157.683 129.728 158.696C129.728 159.699 129.584 160.531 129.296 161.192C129.008 161.843 128.592 162.328 128.048 162.648C127.515 162.968 126.869 163.128 126.112 163.128ZM126.544 161.08C126.949 161.08 127.317 160.984 127.648 160.792C127.979 160.6 128.24 160.328 128.432 159.976C128.635 159.613 128.736 159.187 128.736 158.696C128.736 158.195 128.635 157.768 128.432 157.416C128.24 157.064 127.979 156.792 127.648 156.6C127.317 156.408 126.949 156.312 126.544 156.312C126.128 156.312 125.755 156.408 125.424 156.6C125.093 156.792 124.827 157.064 124.624 157.416C124.432 157.768 124.336 158.195 124.336 158.696C124.336 159.187 124.432 159.613 124.624 159.976C124.827 160.328 125.093 160.6 125.424 160.792C125.755 160.984 126.128 161.08 126.544 161.08ZM128.8 163V161.24L128.848 158.68L128.688 156.136V151.128H131.184V163H128.8ZM137.226 163.128C136.512 163.128 135.872 162.989 135.306 162.712C134.752 162.435 134.32 162.013 134.01 161.448C133.701 160.872 133.546 160.141 133.546 159.256V154.392H136.042V158.888C136.042 159.603 136.192 160.131 136.49 160.472C136.8 160.803 137.232 160.968 137.786 160.968C138.17 160.968 138.512 160.888 138.81 160.728C139.109 160.557 139.344 160.301 139.514 159.96C139.685 159.608 139.77 159.171 139.77 158.648V154.392H142.266V163H139.898V160.632L140.33 161.32C140.042 161.917 139.616 162.371 139.05 162.68C138.496 162.979 137.888 163.128 137.226 163.128ZM148.839 163.128C147.911 163.128 147.084 162.941 146.359 162.568C145.633 162.184 145.063 161.656 144.647 160.984C144.241 160.312 144.039 159.549 144.039 158.696C144.039 157.832 144.241 157.069 144.647 156.408C145.063 155.736 145.633 155.213 146.359 154.84C147.084 154.456 147.911 154.264 148.839 154.264C149.745 154.264 150.535 154.456 151.207 154.84C151.879 155.213 152.375 155.752 152.695 156.456L150.759 157.496C150.535 157.091 150.252 156.792 149.911 156.6C149.58 156.408 149.217 156.312 148.823 156.312C148.396 156.312 148.012 156.408 147.671 156.6C147.329 156.792 147.057 157.064 146.855 157.416C146.663 157.768 146.567 158.195 146.567 158.696C146.567 159.197 146.663 159.624 146.855 159.976C147.057 160.328 147.329 160.6 147.671 160.792C148.012 160.984 148.396 161.08 148.823 161.08C149.217 161.08 149.58 160.989 149.911 160.808C150.252 160.616 150.535 160.312 150.759 159.896L152.695 160.952C152.375 161.645 151.879 162.184 151.207 162.568C150.535 162.941 149.745 163.128 148.839 163.128ZM157.877 163.128C156.863 163.128 156.074 162.872 155.509 162.36C154.943 161.837 154.661 161.064 154.661 160.04V152.488H157.157V160.008C157.157 160.371 157.253 160.653 157.445 160.856C157.637 161.048 157.898 161.144 158.229 161.144C158.623 161.144 158.959 161.037 159.237 160.824L159.909 162.584C159.653 162.765 159.343 162.904 158.981 163C158.629 163.085 158.261 163.128 157.877 163.128ZM153.333 156.504V154.584H159.301V156.504H153.333ZM170.201 163.128C169.273 163.128 168.446 162.941 167.721 162.568C166.996 162.184 166.425 161.656 166.009 160.984C165.604 160.312 165.401 159.549 165.401 158.696C165.401 157.832 165.604 157.069 166.009 156.408C166.425 155.736 166.996 155.213 167.721 154.84C168.446 154.456 169.273 154.264 170.201 154.264C171.108 154.264 171.897 154.456 172.569 154.84C173.241 155.213 173.737 155.752 174.057 156.456L172.121 157.496C171.897 157.091 171.614 156.792 171.273 156.6C170.942 156.408 170.58 156.312 170.185 156.312C169.758 156.312 169.374 156.408 169.033 156.6C168.692 156.792 168.42 157.064 168.217 157.416C168.025 157.768 167.929 158.195 167.929 158.696C167.929 159.197 168.025 159.624 168.217 159.976C168.42 160.328 168.692 160.6 169.033 160.792C169.374 160.984 169.758 161.08 170.185 161.08C170.58 161.08 170.942 160.989 171.273 160.808C171.614 160.616 171.897 160.312 172.121 159.896L174.057 160.952C173.737 161.645 173.241 162.184 172.569 162.568C171.897 162.941 171.108 163.128 170.201 163.128ZM180.874 163V161.32L180.714 160.952V157.944C180.714 157.411 180.549 156.995 180.218 156.696C179.898 156.397 179.402 156.248 178.73 156.248C178.272 156.248 177.818 156.323 177.37 156.472C176.933 156.611 176.56 156.803 176.25 157.048L175.354 155.304C175.824 154.973 176.389 154.717 177.05 154.536C177.712 154.355 178.384 154.264 179.066 154.264C180.378 154.264 181.397 154.573 182.122 155.192C182.848 155.811 183.21 156.776 183.21 158.088V163H180.874ZM178.25 163.128C177.578 163.128 177.002 163.016 176.522 162.792C176.042 162.557 175.674 162.243 175.418 161.848C175.162 161.453 175.034 161.011 175.034 160.52C175.034 160.008 175.157 159.56 175.402 159.176C175.658 158.792 176.058 158.493 176.602 158.28C177.146 158.056 177.856 157.944 178.73 157.944H181.018V159.4H179.002C178.416 159.4 178.01 159.496 177.786 159.688C177.573 159.88 177.466 160.12 177.466 160.408C177.466 160.728 177.589 160.984 177.834 161.176C178.09 161.357 178.437 161.448 178.874 161.448C179.29 161.448 179.664 161.352 179.994 161.16C180.325 160.957 180.565 160.664 180.714 160.28L181.098 161.432C180.917 161.987 180.586 162.408 180.106 162.696C179.626 162.984 179.008 163.128 178.25 163.128ZM189.089 163.128C188.076 163.128 187.287 162.872 186.721 162.36C186.156 161.837 185.873 161.064 185.873 160.04V152.488H188.369V160.008C188.369 160.371 188.465 160.653 188.657 160.856C188.849 161.048 189.111 161.144 189.441 161.144C189.836 161.144 190.172 161.037 190.449 160.824L191.121 162.584C190.865 162.765 190.556 162.904 190.193 163C189.841 163.085 189.473 163.128 189.089 163.128ZM184.545 156.504V154.584H190.513V156.504H184.545ZM196.629 163.128C195.647 163.128 194.783 162.936 194.037 162.552C193.301 162.168 192.73 161.645 192.325 160.984C191.919 160.312 191.717 159.549 191.717 158.696C191.717 157.832 191.914 157.069 192.309 156.408C192.714 155.736 193.263 155.213 193.957 154.84C194.65 154.456 195.434 154.264 196.309 154.264C197.151 154.264 197.909 154.445 198.581 154.808C199.263 155.16 199.802 155.672 200.197 156.344C200.591 157.005 200.789 157.8 200.789 158.728C200.789 158.824 200.783 158.936 200.773 159.064C200.762 159.181 200.751 159.293 200.741 159.4H193.749V157.944H199.429L198.469 158.376C198.469 157.928 198.378 157.539 198.197 157.208C198.015 156.877 197.765 156.621 197.445 156.44C197.125 156.248 196.751 156.152 196.325 156.152C195.898 156.152 195.519 156.248 195.189 156.44C194.869 156.621 194.618 156.883 194.437 157.224C194.255 157.555 194.165 157.949 194.165 158.408V158.792C194.165 159.261 194.266 159.677 194.469 160.04C194.682 160.392 194.975 160.664 195.349 160.856C195.733 161.037 196.181 161.128 196.693 161.128C197.151 161.128 197.551 161.059 197.893 160.92C198.245 160.781 198.565 160.573 198.853 160.296L200.181 161.736C199.786 162.184 199.29 162.531 198.693 162.776C198.095 163.011 197.407 163.128 196.629 163.128ZM206.598 166.232C205.788 166.232 205.004 166.131 204.246 165.928C203.5 165.736 202.876 165.443 202.374 165.048L203.366 163.256C203.729 163.555 204.188 163.789 204.742 163.96C205.308 164.141 205.862 164.232 206.406 164.232C207.292 164.232 207.932 164.035 208.326 163.64C208.732 163.245 208.934 162.659 208.934 161.88V160.584L209.094 158.424L209.062 156.248V154.392H211.43V161.56C211.43 163.16 211.014 164.339 210.182 165.096C209.35 165.853 208.156 166.232 206.598 166.232ZM206.214 162.584C205.414 162.584 204.689 162.413 204.038 162.072C203.398 161.72 202.881 161.235 202.486 160.616C202.102 159.987 201.91 159.256 201.91 158.424C201.91 157.581 202.102 156.851 202.486 156.232C202.881 155.603 203.398 155.117 204.038 154.776C204.689 154.435 205.414 154.264 206.214 154.264C206.94 154.264 207.58 154.413 208.134 154.712C208.689 155 209.121 155.453 209.43 156.072C209.74 156.68 209.894 157.464 209.894 158.424C209.894 159.373 209.74 160.157 209.43 160.776C209.121 161.384 208.689 161.837 208.134 162.136C207.58 162.435 206.94 162.584 206.214 162.584ZM206.71 160.536C207.148 160.536 207.537 160.451 207.878 160.28C208.22 160.099 208.486 159.848 208.678 159.528C208.87 159.208 208.966 158.84 208.966 158.424C208.966 157.997 208.87 157.629 208.678 157.32C208.486 157 208.22 156.755 207.878 156.584C207.537 156.403 207.148 156.312 206.71 156.312C206.273 156.312 205.884 156.403 205.542 156.584C205.201 156.755 204.929 157 204.726 157.32C204.534 157.629 204.438 157.997 204.438 158.424C204.438 158.84 204.534 159.208 204.726 159.528C204.929 159.848 205.201 160.099 205.542 160.28C205.884 160.451 206.273 160.536 206.71 160.536ZM217.95 163.128C217.032 163.128 216.216 162.936 215.502 162.552C214.798 162.168 214.238 161.645 213.822 160.984C213.416 160.312 213.214 159.549 213.214 158.696C213.214 157.832 213.416 157.069 213.822 156.408C214.238 155.736 214.798 155.213 215.502 154.84C216.216 154.456 217.032 154.264 217.95 154.264C218.856 154.264 219.667 154.456 220.382 154.84C221.096 155.213 221.656 155.731 222.062 156.392C222.467 157.053 222.67 157.821 222.67 158.696C222.67 159.549 222.467 160.312 222.062 160.984C221.656 161.645 221.096 162.168 220.382 162.552C219.667 162.936 218.856 163.128 217.95 163.128ZM217.95 161.08C218.366 161.08 218.739 160.984 219.07 160.792C219.4 160.6 219.662 160.328 219.854 159.976C220.046 159.613 220.142 159.187 220.142 158.696C220.142 158.195 220.046 157.768 219.854 157.416C219.662 157.064 219.4 156.792 219.07 156.6C218.739 156.408 218.366 156.312 217.95 156.312C217.534 156.312 217.16 156.408 216.83 156.6C216.499 156.792 216.232 157.064 216.03 157.416C215.838 157.768 215.742 158.195 215.742 158.696C215.742 159.187 215.838 159.613 216.03 159.976C216.232 160.328 216.499 160.6 216.83 160.792C217.16 160.984 217.534 161.08 217.95 161.08ZM224.438 163V154.392H226.822V156.824L226.486 156.12C226.742 155.512 227.153 155.053 227.718 154.744C228.283 154.424 228.971 154.264 229.782 154.264V156.568C229.675 156.557 229.579 156.552 229.494 156.552C229.409 156.541 229.318 156.536 229.222 156.536C228.539 156.536 227.985 156.733 227.558 157.128C227.142 157.512 226.934 158.115 226.934 158.936V163H224.438ZM231.382 163V154.392H233.878V163H231.382ZM232.63 153.192C232.171 153.192 231.798 153.059 231.51 152.792C231.222 152.525 231.078 152.195 231.078 151.8C231.078 151.405 231.222 151.075 231.51 150.808C231.798 150.541 232.171 150.408 232.63 150.408C233.088 150.408 233.462 150.536 233.75 150.792C234.038 151.037 234.182 151.357 234.182 151.752C234.182 152.168 234.038 152.515 233.75 152.792C233.472 153.059 233.099 153.192 232.63 153.192ZM240.566 163.128C239.585 163.128 238.721 162.936 237.974 162.552C237.238 162.168 236.668 161.645 236.262 160.984C235.857 160.312 235.654 159.549 235.654 158.696C235.654 157.832 235.852 157.069 236.246 156.408C236.652 155.736 237.201 155.213 237.894 154.84C238.588 154.456 239.372 154.264 240.246 154.264C241.089 154.264 241.846 154.445 242.518 154.808C243.201 155.16 243.74 155.672 244.134 156.344C244.529 157.005 244.726 157.8 244.726 158.728C244.726 158.824 244.721 158.936 244.71 159.064C244.7 159.181 244.689 159.293 244.678 159.4H237.686V157.944H243.366L242.406 158.376C242.406 157.928 242.316 157.539 242.134 157.208C241.953 156.877 241.702 156.621 241.382 156.44C241.062 156.248 240.689 156.152 240.262 156.152C239.836 156.152 239.457 156.248 239.126 156.44C238.806 156.621 238.556 156.883 238.374 157.224C238.193 157.555 238.102 157.949 238.102 158.408V158.792C238.102 159.261 238.204 159.677 238.406 160.04C238.62 160.392 238.913 160.664 239.286 160.856C239.67 161.037 240.118 161.128 240.63 161.128C241.089 161.128 241.489 161.059 241.83 160.92C242.182 160.781 242.502 160.573 242.79 160.296L244.118 161.736C243.724 162.184 243.228 162.531 242.63 162.776C242.033 163.011 241.345 163.128 240.566 163.128ZM249.384 163.128C248.648 163.128 247.939 163.043 247.256 162.872C246.584 162.691 246.051 162.467 245.656 162.2L246.488 160.408C246.883 160.653 247.347 160.856 247.88 161.016C248.424 161.165 248.957 161.24 249.48 161.24C250.056 161.24 250.461 161.171 250.696 161.032C250.941 160.893 251.064 160.701 251.064 160.456C251.064 160.253 250.968 160.104 250.776 160.008C250.595 159.901 250.349 159.821 250.04 159.768C249.731 159.715 249.389 159.661 249.016 159.608C248.653 159.555 248.285 159.485 247.912 159.4C247.539 159.304 247.197 159.165 246.888 158.984C246.579 158.803 246.328 158.557 246.136 158.248C245.955 157.939 245.864 157.539 245.864 157.048C245.864 156.504 246.019 156.024 246.328 155.608C246.648 155.192 247.107 154.867 247.704 154.632C248.301 154.387 249.016 154.264 249.848 154.264C250.435 154.264 251.032 154.328 251.64 154.456C252.248 154.584 252.755 154.771 253.16 155.016L252.328 156.792C251.912 156.547 251.491 156.381 251.064 156.296C250.648 156.2 250.243 156.152 249.848 156.152C249.293 156.152 248.888 156.227 248.632 156.376C248.376 156.525 248.248 156.717 248.248 156.952C248.248 157.165 248.339 157.325 248.52 157.432C248.712 157.539 248.963 157.624 249.272 157.688C249.581 157.752 249.917 157.811 250.28 157.864C250.653 157.907 251.027 157.976 251.4 158.072C251.773 158.168 252.109 158.307 252.408 158.488C252.717 158.659 252.968 158.899 253.16 159.208C253.352 159.507 253.448 159.901 253.448 160.392C253.448 160.925 253.288 161.4 252.968 161.816C252.648 162.221 252.184 162.541 251.576 162.776C250.979 163.011 250.248 163.128 249.384 163.128Z" fill="#183865"/>
</svg>