<svg xmlns="http://www.w3.org/2000/svg" width="330" height="181" viewBox="0 0 330 181" fill="none">
<path d="M165 40L171.329 59.4803H191.812L175.241 71.5198L181.571 91L165 78.9607L148.429 91L154.758 71.5198L138.188 59.4803H158.67L165 40Z" stroke="#183865" stroke-width="4" stroke-linecap="round" stroke-linejoin="round"/>
<path d="M92.5677 139.192C91.7037 139.192 90.8984 139.053 90.1517 138.776C89.4157 138.488 88.7757 138.083 88.2317 137.56C87.6877 137.037 87.261 136.424 86.9517 135.72C86.653 135.016 86.5037 134.243 86.5037 133.4C86.5037 132.557 86.653 131.784 86.9517 131.08C87.261 130.376 87.6877 129.763 88.2317 129.24C88.7864 128.717 89.4317 128.317 90.1677 128.04C90.9037 127.752 91.709 127.608 92.5837 127.608C93.5544 127.608 94.429 127.779 95.2077 128.12C95.997 128.451 96.6584 128.941 97.1917 129.592L95.5277 131.128C95.1437 130.691 94.717 130.365 94.2477 130.152C93.7784 129.928 93.2664 129.816 92.7117 129.816C92.189 129.816 91.709 129.901 91.2717 130.072C90.8344 130.243 90.4557 130.488 90.1357 130.808C89.8157 131.128 89.565 131.507 89.3837 131.944C89.213 132.381 89.1277 132.867 89.1277 133.4C89.1277 133.933 89.213 134.419 89.3837 134.856C89.565 135.293 89.8157 135.672 90.1357 135.992C90.4557 136.312 90.8344 136.557 91.2717 136.728C91.709 136.899 92.189 136.984 92.7117 136.984C93.2664 136.984 93.7784 136.877 94.2477 136.664C94.717 136.44 95.1437 136.104 95.5277 135.656L97.1917 137.192C96.6584 137.843 95.997 138.339 95.2077 138.68C94.429 139.021 93.549 139.192 92.5677 139.192ZM102.665 139.128C101.748 139.128 100.932 138.936 100.217 138.552C99.5132 138.168 98.9532 137.645 98.5372 136.984C98.1318 136.312 97.9292 135.549 97.9292 134.696C97.9292 133.832 98.1318 133.069 98.5372 132.408C98.9532 131.736 99.5132 131.213 100.217 130.84C100.932 130.456 101.748 130.264 102.665 130.264C103.572 130.264 104.383 130.456 105.097 130.84C105.812 131.213 106.372 131.731 106.777 132.392C107.183 133.053 107.385 133.821 107.385 134.696C107.385 135.549 107.183 136.312 106.777 136.984C106.372 137.645 105.812 138.168 105.097 138.552C104.383 138.936 103.572 139.128 102.665 139.128ZM102.665 137.08C103.081 137.08 103.455 136.984 103.785 136.792C104.116 136.6 104.377 136.328 104.569 135.976C104.761 135.613 104.857 135.187 104.857 134.696C104.857 134.195 104.761 133.768 104.569 133.416C104.377 133.064 104.116 132.792 103.785 132.6C103.455 132.408 103.081 132.312 102.665 132.312C102.249 132.312 101.876 132.408 101.545 132.6C101.215 132.792 100.948 133.064 100.745 133.416C100.553 133.768 100.457 134.195 100.457 134.696C100.457 135.187 100.553 135.613 100.745 135.976C100.948 136.328 101.215 136.6 101.545 136.792C101.876 136.984 102.249 137.08 102.665 137.08ZM120.178 130.264C120.86 130.264 121.463 130.403 121.986 130.68C122.519 130.947 122.935 131.363 123.234 131.928C123.543 132.483 123.698 133.197 123.698 134.072V139H121.202V134.456C121.202 133.763 121.058 133.251 120.77 132.92C120.482 132.589 120.076 132.424 119.554 132.424C119.191 132.424 118.866 132.509 118.578 132.68C118.29 132.84 118.066 133.085 117.906 133.416C117.746 133.747 117.666 134.168 117.666 134.68V139H115.17V134.456C115.17 133.763 115.026 133.251 114.738 132.92C114.46 132.589 114.06 132.424 113.538 132.424C113.175 132.424 112.85 132.509 112.562 132.68C112.274 132.84 112.05 133.085 111.89 133.416C111.73 133.747 111.65 134.168 111.65 134.68V139H109.154V130.392H111.538V132.744L111.09 132.056C111.388 131.469 111.81 131.027 112.354 130.728C112.908 130.419 113.538 130.264 114.242 130.264C115.031 130.264 115.719 130.467 116.306 130.872C116.903 131.267 117.298 131.875 117.49 132.696L116.61 132.456C116.898 131.784 117.356 131.251 117.986 130.856C118.626 130.461 119.356 130.264 120.178 130.264ZM131.123 139.128C130.397 139.128 129.763 138.968 129.219 138.648C128.675 138.328 128.248 137.843 127.939 137.192C127.64 136.531 127.491 135.699 127.491 134.696C127.491 133.683 127.635 132.851 127.923 132.2C128.211 131.549 128.627 131.064 129.171 130.744C129.715 130.424 130.365 130.264 131.123 130.264C131.933 130.264 132.659 130.451 133.299 130.824C133.949 131.187 134.461 131.699 134.835 132.36C135.219 133.021 135.411 133.8 135.411 134.696C135.411 135.603 135.219 136.387 134.835 137.048C134.461 137.709 133.949 138.221 133.299 138.584C132.659 138.947 131.933 139.128 131.123 139.128ZM126.035 142.104V130.392H128.419V132.152L128.371 134.712L128.531 137.256V142.104H126.035ZM130.691 137.08C131.107 137.08 131.475 136.984 131.795 136.792C132.125 136.6 132.387 136.328 132.579 135.976C132.781 135.613 132.883 135.187 132.883 134.696C132.883 134.195 132.781 133.768 132.579 133.416C132.387 133.064 132.125 132.792 131.795 132.6C131.475 132.408 131.107 132.312 130.691 132.312C130.275 132.312 129.901 132.408 129.571 132.6C129.24 132.792 128.979 133.064 128.787 133.416C128.595 133.768 128.499 134.195 128.499 134.696C128.499 135.187 128.595 135.613 128.787 135.976C128.979 136.328 129.24 136.6 129.571 136.792C129.901 136.984 130.275 137.08 130.691 137.08ZM137.182 139V127.128H139.678V139H137.182ZM146.366 139.128C145.385 139.128 144.521 138.936 143.774 138.552C143.038 138.168 142.468 137.645 142.062 136.984C141.657 136.312 141.454 135.549 141.454 134.696C141.454 133.832 141.652 133.069 142.046 132.408C142.452 131.736 143.001 131.213 143.694 130.84C144.388 130.456 145.172 130.264 146.046 130.264C146.889 130.264 147.646 130.445 148.318 130.808C149.001 131.16 149.54 131.672 149.934 132.344C150.329 133.005 150.526 133.8 150.526 134.728C150.526 134.824 150.521 134.936 150.51 135.064C150.5 135.181 150.489 135.293 150.478 135.4H143.486V133.944H149.166L148.206 134.376C148.206 133.928 148.116 133.539 147.934 133.208C147.753 132.877 147.502 132.621 147.182 132.44C146.862 132.248 146.489 132.152 146.062 132.152C145.636 132.152 145.257 132.248 144.926 132.44C144.606 132.621 144.356 132.883 144.174 133.224C143.993 133.555 143.902 133.949 143.902 134.408V134.792C143.902 135.261 144.004 135.677 144.206 136.04C144.42 136.392 144.713 136.664 145.086 136.856C145.47 137.037 145.918 137.128 146.43 137.128C146.889 137.128 147.289 137.059 147.63 136.92C147.982 136.781 148.302 136.573 148.59 136.296L149.918 137.736C149.524 138.184 149.028 138.531 148.43 138.776C147.833 139.011 147.145 139.128 146.366 139.128ZM155.808 139.128C154.795 139.128 154.005 138.872 153.44 138.36C152.875 137.837 152.592 137.064 152.592 136.04V128.488H155.088V136.008C155.088 136.371 155.184 136.653 155.376 136.856C155.568 137.048 155.829 137.144 156.16 137.144C156.555 137.144 156.891 137.037 157.168 136.824L157.84 138.584C157.584 138.765 157.275 138.904 156.912 139C156.56 139.085 156.192 139.128 155.808 139.128ZM151.264 132.504V130.584H157.232V132.504H151.264ZM163.347 139.128C162.366 139.128 161.502 138.936 160.755 138.552C160.019 138.168 159.449 137.645 159.043 136.984C158.638 136.312 158.435 135.549 158.435 134.696C158.435 133.832 158.633 133.069 159.027 132.408C159.433 131.736 159.982 131.213 160.675 130.84C161.369 130.456 162.153 130.264 163.027 130.264C163.87 130.264 164.627 130.445 165.299 130.808C165.982 131.16 166.521 131.672 166.915 132.344C167.31 133.005 167.507 133.8 167.507 134.728C167.507 134.824 167.502 134.936 167.491 135.064C167.481 135.181 167.47 135.293 167.459 135.4H160.467V133.944H166.147L165.187 134.376C165.187 133.928 165.097 133.539 164.915 133.208C164.734 132.877 164.483 132.621 164.163 132.44C163.843 132.248 163.47 132.152 163.043 132.152C162.617 132.152 162.238 132.248 161.907 132.44C161.587 132.621 161.337 132.883 161.155 133.224C160.974 133.555 160.883 133.949 160.883 134.408V134.792C160.883 135.261 160.985 135.677 161.187 136.04C161.401 136.392 161.694 136.664 162.067 136.856C162.451 137.037 162.899 137.128 163.411 137.128C163.87 137.128 164.27 137.059 164.611 136.92C164.963 136.781 165.283 136.573 165.571 136.296L166.899 137.736C166.505 138.184 166.009 138.531 165.411 138.776C164.814 139.011 164.126 139.128 163.347 139.128ZM176.796 139.128C176.06 139.128 175.351 139.043 174.668 138.872C173.996 138.691 173.463 138.467 173.068 138.2L173.9 136.408C174.295 136.653 174.759 136.856 175.292 137.016C175.836 137.165 176.37 137.24 176.892 137.24C177.468 137.24 177.874 137.171 178.108 137.032C178.354 136.893 178.476 136.701 178.476 136.456C178.476 136.253 178.38 136.104 178.188 136.008C178.007 135.901 177.762 135.821 177.452 135.768C177.143 135.715 176.802 135.661 176.428 135.608C176.066 135.555 175.698 135.485 175.324 135.4C174.951 135.304 174.61 135.165 174.3 134.984C173.991 134.803 173.74 134.557 173.548 134.248C173.367 133.939 173.276 133.539 173.276 133.048C173.276 132.504 173.431 132.024 173.74 131.608C174.06 131.192 174.519 130.867 175.116 130.632C175.714 130.387 176.428 130.264 177.26 130.264C177.847 130.264 178.444 130.328 179.052 130.456C179.66 130.584 180.167 130.771 180.572 131.016L179.74 132.792C179.324 132.547 178.903 132.381 178.476 132.296C178.06 132.2 177.655 132.152 177.26 132.152C176.706 132.152 176.3 132.227 176.044 132.376C175.788 132.525 175.66 132.717 175.66 132.952C175.66 133.165 175.751 133.325 175.932 133.432C176.124 133.539 176.375 133.624 176.684 133.688C176.994 133.752 177.33 133.811 177.692 133.864C178.066 133.907 178.439 133.976 178.812 134.072C179.186 134.168 179.522 134.307 179.82 134.488C180.13 134.659 180.38 134.899 180.572 135.208C180.764 135.507 180.86 135.901 180.86 136.392C180.86 136.925 180.7 137.4 180.38 137.816C180.06 138.221 179.596 138.541 178.988 138.776C178.391 139.011 177.66 139.128 176.796 139.128ZM186.132 139.128C185.418 139.128 184.778 138.989 184.212 138.712C183.658 138.435 183.226 138.013 182.916 137.448C182.607 136.872 182.452 136.141 182.452 135.256V130.392H184.948V134.888C184.948 135.603 185.098 136.131 185.396 136.472C185.706 136.803 186.138 136.968 186.692 136.968C187.076 136.968 187.418 136.888 187.716 136.728C188.015 136.557 188.25 136.301 188.42 135.96C188.591 135.608 188.676 135.171 188.676 134.648V130.392H191.172V139H188.804V136.632L189.236 137.32C188.948 137.917 188.522 138.371 187.956 138.68C187.402 138.979 186.794 139.128 186.132 139.128ZM198.673 139.128C197.947 139.128 197.313 138.968 196.769 138.648C196.225 138.328 195.798 137.843 195.489 137.192C195.19 136.531 195.041 135.699 195.041 134.696C195.041 133.683 195.185 132.851 195.473 132.2C195.761 131.549 196.177 131.064 196.721 130.744C197.265 130.424 197.915 130.264 198.673 130.264C199.483 130.264 200.209 130.451 200.849 130.824C201.499 131.187 202.011 131.699 202.385 132.36C202.769 133.021 202.961 133.8 202.961 134.696C202.961 135.603 202.769 136.387 202.385 137.048C202.011 137.709 201.499 138.221 200.849 138.584C200.209 138.947 199.483 139.128 198.673 139.128ZM193.585 142.104V130.392H195.969V132.152L195.921 134.712L196.081 137.256V142.104H193.585ZM198.241 137.08C198.657 137.08 199.025 136.984 199.345 136.792C199.675 136.6 199.937 136.328 200.129 135.976C200.331 135.613 200.433 135.187 200.433 134.696C200.433 134.195 200.331 133.768 200.129 133.416C199.937 133.064 199.675 132.792 199.345 132.6C199.025 132.408 198.657 132.312 198.241 132.312C197.825 132.312 197.451 132.408 197.121 132.6C196.79 132.792 196.529 133.064 196.337 133.416C196.145 133.768 196.049 134.195 196.049 134.696C196.049 135.187 196.145 135.613 196.337 135.976C196.529 136.328 196.79 136.6 197.121 136.792C197.451 136.984 197.825 137.08 198.241 137.08ZM209.82 139.128C209.094 139.128 208.46 138.968 207.916 138.648C207.372 138.328 206.945 137.843 206.636 137.192C206.337 136.531 206.188 135.699 206.188 134.696C206.188 133.683 206.332 132.851 206.62 132.2C206.908 131.549 207.324 131.064 207.868 130.744C208.412 130.424 209.062 130.264 209.82 130.264C210.63 130.264 211.356 130.451 211.996 130.824C212.646 131.187 213.158 131.699 213.532 132.36C213.916 133.021 214.108 133.8 214.108 134.696C214.108 135.603 213.916 136.387 213.532 137.048C213.158 137.709 212.646 138.221 211.996 138.584C211.356 138.947 210.63 139.128 209.82 139.128ZM204.732 142.104V130.392H207.116V132.152L207.068 134.712L207.228 137.256V142.104H204.732ZM209.388 137.08C209.804 137.08 210.172 136.984 210.492 136.792C210.822 136.6 211.084 136.328 211.276 135.976C211.478 135.613 211.58 135.187 211.58 134.696C211.58 134.195 211.478 133.768 211.276 133.416C211.084 133.064 210.822 132.792 210.492 132.6C210.172 132.408 209.804 132.312 209.388 132.312C208.972 132.312 208.598 132.408 208.268 132.6C207.937 132.792 207.676 133.064 207.484 133.416C207.292 133.768 207.196 134.195 207.196 134.696C207.196 135.187 207.292 135.613 207.484 135.976C207.676 136.328 207.937 136.6 208.268 136.792C208.598 136.984 208.972 137.08 209.388 137.08ZM219.975 139.128C219.057 139.128 218.241 138.936 217.527 138.552C216.823 138.168 216.263 137.645 215.847 136.984C215.441 136.312 215.239 135.549 215.239 134.696C215.239 133.832 215.441 133.069 215.847 132.408C216.263 131.736 216.823 131.213 217.527 130.84C218.241 130.456 219.057 130.264 219.975 130.264C220.881 130.264 221.692 130.456 222.407 130.84C223.121 131.213 223.681 131.731 224.087 132.392C224.492 133.053 224.695 133.821 224.695 134.696C224.695 135.549 224.492 136.312 224.087 136.984C223.681 137.645 223.121 138.168 222.407 138.552C221.692 138.936 220.881 139.128 219.975 139.128ZM219.975 137.08C220.391 137.08 220.764 136.984 221.095 136.792C221.425 136.6 221.687 136.328 221.879 135.976C222.071 135.613 222.167 135.187 222.167 134.696C222.167 134.195 222.071 133.768 221.879 133.416C221.687 133.064 221.425 132.792 221.095 132.6C220.764 132.408 220.391 132.312 219.975 132.312C219.559 132.312 219.185 132.408 218.855 132.6C218.524 132.792 218.257 133.064 218.055 133.416C217.863 133.768 217.767 134.195 217.767 134.696C217.767 135.187 217.863 135.613 218.055 135.976C218.257 136.328 218.524 136.6 218.855 136.792C219.185 136.984 219.559 137.08 219.975 137.08ZM226.463 139V130.392H228.847V132.824L228.511 132.12C228.767 131.512 229.178 131.053 229.743 130.744C230.308 130.424 230.996 130.264 231.807 130.264V132.568C231.7 132.557 231.604 132.552 231.519 132.552C231.434 132.541 231.343 132.536 231.247 132.536C230.564 132.536 230.01 132.733 229.583 133.128C229.167 133.512 228.959 134.115 228.959 134.936V139H226.463ZM237.208 139.128C236.195 139.128 235.405 138.872 234.84 138.36C234.275 137.837 233.992 137.064 233.992 136.04V128.488H236.488V136.008C236.488 136.371 236.584 136.653 236.776 136.856C236.968 137.048 237.229 137.144 237.56 137.144C237.955 137.144 238.291 137.037 238.568 136.824L239.24 138.584C238.984 138.765 238.675 138.904 238.312 139C237.96 139.085 237.592 139.128 237.208 139.128ZM232.664 132.504V130.584H238.632V132.504H232.664ZM108.688 163V161.32L108.528 160.952V157.944C108.528 157.411 108.363 156.995 108.032 156.696C107.712 156.397 107.216 156.248 106.544 156.248C106.086 156.248 105.632 156.323 105.184 156.472C104.747 156.611 104.374 156.803 104.064 157.048L103.168 155.304C103.638 154.973 104.203 154.717 104.864 154.536C105.526 154.355 106.198 154.264 106.88 154.264C108.192 154.264 109.211 154.573 109.936 155.192C110.662 155.811 111.024 156.776 111.024 158.088V163H108.688ZM106.064 163.128C105.392 163.128 104.816 163.016 104.336 162.792C103.856 162.557 103.488 162.243 103.232 161.848C102.976 161.453 102.848 161.011 102.848 160.52C102.848 160.008 102.971 159.56 103.216 159.176C103.472 158.792 103.872 158.493 104.416 158.28C104.96 158.056 105.67 157.944 106.544 157.944H108.832V159.4H106.816C106.23 159.4 105.824 159.496 105.6 159.688C105.387 159.88 105.28 160.12 105.28 160.408C105.28 160.728 105.403 160.984 105.648 161.176C105.904 161.357 106.251 161.448 106.688 161.448C107.104 161.448 107.478 161.352 107.808 161.16C108.139 160.957 108.379 160.664 108.528 160.28L108.912 161.432C108.731 161.987 108.4 162.408 107.92 162.696C107.44 162.984 106.822 163.128 106.064 163.128ZM118.615 154.264C119.298 154.264 119.906 154.403 120.439 154.68C120.983 154.947 121.41 155.363 121.719 155.928C122.029 156.483 122.183 157.197 122.183 158.072V163H119.687V158.456C119.687 157.763 119.533 157.251 119.223 156.92C118.925 156.589 118.498 156.424 117.943 156.424C117.549 156.424 117.191 156.509 116.871 156.68C116.562 156.84 116.317 157.091 116.135 157.432C115.965 157.773 115.879 158.211 115.879 158.744V163H113.383V154.392H115.767V156.776L115.319 156.056C115.629 155.48 116.071 155.037 116.647 154.728C117.223 154.419 117.879 154.264 118.615 154.264ZM128.304 163.128C127.494 163.128 126.763 162.947 126.112 162.584C125.462 162.211 124.944 161.693 124.56 161.032C124.187 160.371 124 159.592 124 158.696C124 157.789 124.187 157.005 124.56 156.344C124.944 155.683 125.462 155.171 126.112 154.808C126.763 154.445 127.494 154.264 128.304 154.264C129.03 154.264 129.664 154.424 130.208 154.744C130.752 155.064 131.174 155.549 131.472 156.2C131.771 156.851 131.92 157.683 131.92 158.696C131.92 159.699 131.776 160.531 131.488 161.192C131.2 161.843 130.784 162.328 130.24 162.648C129.707 162.968 129.062 163.128 128.304 163.128ZM128.736 161.08C129.142 161.08 129.51 160.984 129.84 160.792C130.171 160.6 130.432 160.328 130.624 159.976C130.827 159.613 130.928 159.187 130.928 158.696C130.928 158.195 130.827 157.768 130.624 157.416C130.432 157.064 130.171 156.792 129.84 156.6C129.51 156.408 129.142 156.312 128.736 156.312C128.32 156.312 127.947 156.408 127.616 156.6C127.286 156.792 127.019 157.064 126.816 157.416C126.624 157.768 126.528 158.195 126.528 158.696C126.528 159.187 126.624 159.613 126.816 159.976C127.019 160.328 127.286 160.6 127.616 160.792C127.947 160.984 128.32 161.08 128.736 161.08ZM130.992 163V161.24L131.04 158.68L130.88 156.136V151.128H133.376V163H130.992ZM145.698 163V161.32L145.538 160.952V157.944C145.538 157.411 145.372 156.995 145.042 156.696C144.722 156.397 144.226 156.248 143.554 156.248C143.095 156.248 142.642 156.323 142.194 156.472C141.756 156.611 141.383 156.803 141.074 157.048L140.178 155.304C140.647 154.973 141.212 154.717 141.874 154.536C142.535 154.355 143.207 154.264 143.89 154.264C145.202 154.264 146.22 154.573 146.946 155.192C147.671 155.811 148.034 156.776 148.034 158.088V163H145.698ZM143.074 163.128C142.402 163.128 141.826 163.016 141.346 162.792C140.866 162.557 140.498 162.243 140.242 161.848C139.986 161.453 139.858 161.011 139.858 160.52C139.858 160.008 139.98 159.56 140.226 159.176C140.482 158.792 140.882 158.493 141.426 158.28C141.97 158.056 142.679 157.944 143.554 157.944H145.842V159.4H143.826C143.239 159.4 142.834 159.496 142.61 159.688C142.396 159.88 142.29 160.12 142.29 160.408C142.29 160.728 142.412 160.984 142.658 161.176C142.914 161.357 143.26 161.448 143.698 161.448C144.114 161.448 144.487 161.352 144.818 161.16C145.148 160.957 145.388 160.664 145.538 160.28L145.922 161.432C145.74 161.987 145.41 162.408 144.93 162.696C144.45 162.984 143.831 163.128 143.074 163.128ZM153.289 163.128C152.553 163.128 151.843 163.043 151.161 162.872C150.489 162.691 149.955 162.467 149.561 162.2L150.393 160.408C150.787 160.653 151.251 160.856 151.785 161.016C152.329 161.165 152.862 161.24 153.385 161.24C153.961 161.24 154.366 161.171 154.601 161.032C154.846 160.893 154.969 160.701 154.969 160.456C154.969 160.253 154.873 160.104 154.681 160.008C154.499 159.901 154.254 159.821 153.945 159.768C153.635 159.715 153.294 159.661 152.921 159.608C152.558 159.555 152.19 159.485 151.817 159.4C151.443 159.304 151.102 159.165 150.793 158.984C150.483 158.803 150.233 158.557 150.041 158.248C149.859 157.939 149.769 157.539 149.769 157.048C149.769 156.504 149.923 156.024 150.233 155.608C150.553 155.192 151.011 154.867 151.609 154.632C152.206 154.387 152.921 154.264 153.753 154.264C154.339 154.264 154.937 154.328 155.545 154.456C156.153 154.584 156.659 154.771 157.065 155.016L156.233 156.792C155.817 156.547 155.395 156.381 154.969 156.296C154.553 156.2 154.147 156.152 153.753 156.152C153.198 156.152 152.793 156.227 152.537 156.376C152.281 156.525 152.153 156.717 152.153 156.952C152.153 157.165 152.243 157.325 152.425 157.432C152.617 157.539 152.867 157.624 153.177 157.688C153.486 157.752 153.822 157.811 154.185 157.864C154.558 157.907 154.931 157.976 155.305 158.072C155.678 158.168 156.014 158.307 156.313 158.488C156.622 158.659 156.873 158.899 157.065 159.208C157.257 159.507 157.353 159.901 157.353 160.392C157.353 160.925 157.193 161.4 156.873 161.816C156.553 162.221 156.089 162.541 155.481 162.776C154.883 163.011 154.153 163.128 153.289 163.128ZM161.889 163.128C161.153 163.128 160.443 163.043 159.761 162.872C159.089 162.691 158.555 162.467 158.161 162.2L158.993 160.408C159.387 160.653 159.851 160.856 160.385 161.016C160.929 161.165 161.462 161.24 161.985 161.24C162.561 161.24 162.966 161.171 163.201 161.032C163.446 160.893 163.569 160.701 163.569 160.456C163.569 160.253 163.473 160.104 163.281 160.008C163.099 159.901 162.854 159.821 162.545 159.768C162.235 159.715 161.894 159.661 161.521 159.608C161.158 159.555 160.79 159.485 160.417 159.4C160.043 159.304 159.702 159.165 159.393 158.984C159.083 158.803 158.833 158.557 158.641 158.248C158.459 157.939 158.369 157.539 158.369 157.048C158.369 156.504 158.523 156.024 158.833 155.608C159.153 155.192 159.611 154.867 160.209 154.632C160.806 154.387 161.521 154.264 162.353 154.264C162.939 154.264 163.537 154.328 164.145 154.456C164.753 154.584 165.259 154.771 165.665 155.016L164.833 156.792C164.417 156.547 163.995 156.381 163.569 156.296C163.153 156.2 162.747 156.152 162.353 156.152C161.798 156.152 161.393 156.227 161.137 156.376C160.881 156.525 160.753 156.717 160.753 156.952C160.753 157.165 160.843 157.325 161.025 157.432C161.217 157.539 161.467 157.624 161.777 157.688C162.086 157.752 162.422 157.811 162.785 157.864C163.158 157.907 163.531 157.976 163.905 158.072C164.278 158.168 164.614 158.307 164.913 158.488C165.222 158.659 165.473 158.899 165.665 159.208C165.857 159.507 165.953 159.901 165.953 160.392C165.953 160.925 165.793 161.4 165.473 161.816C165.153 162.221 164.689 162.541 164.081 162.776C163.483 163.011 162.753 163.128 161.889 163.128ZM167.593 163V154.392H170.089V163H167.593ZM168.841 153.192C168.382 153.192 168.009 153.059 167.721 152.792C167.433 152.525 167.289 152.195 167.289 151.8C167.289 151.405 167.433 151.075 167.721 150.808C168.009 150.541 168.382 150.408 168.841 150.408C169.299 150.408 169.673 150.536 169.961 150.792C170.249 151.037 170.393 151.357 170.393 151.752C170.393 152.168 170.249 152.515 169.961 152.792C169.683 153.059 169.31 153.192 168.841 153.192ZM175.401 163.128C174.665 163.128 173.956 163.043 173.273 162.872C172.601 162.691 172.068 162.467 171.673 162.2L172.505 160.408C172.9 160.653 173.364 160.856 173.897 161.016C174.441 161.165 174.974 161.24 175.497 161.24C176.073 161.24 176.478 161.171 176.713 161.032C176.958 160.893 177.081 160.701 177.081 160.456C177.081 160.253 176.985 160.104 176.793 160.008C176.612 159.901 176.366 159.821 176.057 159.768C175.748 159.715 175.406 159.661 175.033 159.608C174.67 159.555 174.302 159.485 173.929 159.4C173.556 159.304 173.214 159.165 172.905 158.984C172.596 158.803 172.345 158.557 172.153 158.248C171.972 157.939 171.881 157.539 171.881 157.048C171.881 156.504 172.036 156.024 172.345 155.608C172.665 155.192 173.124 154.867 173.721 154.632C174.318 154.387 175.033 154.264 175.865 154.264C176.452 154.264 177.049 154.328 177.657 154.456C178.265 154.584 178.772 154.771 179.177 155.016L178.345 156.792C177.929 156.547 177.508 156.381 177.081 156.296C176.665 156.2 176.26 156.152 175.865 156.152C175.31 156.152 174.905 156.227 174.649 156.376C174.393 156.525 174.265 156.717 174.265 156.952C174.265 157.165 174.356 157.325 174.537 157.432C174.729 157.539 174.98 157.624 175.289 157.688C175.598 157.752 175.934 157.811 176.297 157.864C176.67 157.907 177.044 157.976 177.417 158.072C177.79 158.168 178.126 158.307 178.425 158.488C178.734 158.659 178.985 158.899 179.177 159.208C179.369 159.507 179.465 159.901 179.465 160.392C179.465 160.925 179.305 161.4 178.985 161.816C178.665 162.221 178.201 162.541 177.593 162.776C176.996 163.011 176.265 163.128 175.401 163.128ZM184.625 163.128C183.612 163.128 182.822 162.872 182.257 162.36C181.692 161.837 181.409 161.064 181.409 160.04V152.488H183.905V160.008C183.905 160.371 184.001 160.653 184.193 160.856C184.385 161.048 184.646 161.144 184.977 161.144C185.372 161.144 185.708 161.037 185.985 160.824L186.657 162.584C186.401 162.765 186.092 162.904 185.729 163C185.377 163.085 185.009 163.128 184.625 163.128ZM180.081 156.504V154.584H186.049V156.504H180.081ZM193.438 163V161.32L193.278 160.952V157.944C193.278 157.411 193.113 156.995 192.782 156.696C192.462 156.397 191.966 156.248 191.294 156.248C190.836 156.248 190.382 156.323 189.934 156.472C189.497 156.611 189.124 156.803 188.814 157.048L187.918 155.304C188.388 154.973 188.953 154.717 189.614 154.536C190.276 154.355 190.948 154.264 191.63 154.264C192.942 154.264 193.961 154.573 194.686 155.192C195.412 155.811 195.774 156.776 195.774 158.088V163H193.438ZM190.814 163.128C190.142 163.128 189.566 163.016 189.086 162.792C188.606 162.557 188.238 162.243 187.982 161.848C187.726 161.453 187.598 161.011 187.598 160.52C187.598 160.008 187.721 159.56 187.966 159.176C188.222 158.792 188.622 158.493 189.166 158.28C189.71 158.056 190.42 157.944 191.294 157.944H193.582V159.4H191.566C190.98 159.4 190.574 159.496 190.35 159.688C190.137 159.88 190.03 160.12 190.03 160.408C190.03 160.728 190.153 160.984 190.398 161.176C190.654 161.357 191.001 161.448 191.438 161.448C191.854 161.448 192.228 161.352 192.558 161.16C192.889 160.957 193.129 160.664 193.278 160.28L193.662 161.432C193.481 161.987 193.15 162.408 192.67 162.696C192.19 162.984 191.572 163.128 190.814 163.128ZM203.365 154.264C204.048 154.264 204.656 154.403 205.189 154.68C205.733 154.947 206.16 155.363 206.469 155.928C206.779 156.483 206.933 157.197 206.933 158.072V163H204.437V158.456C204.437 157.763 204.283 157.251 203.973 156.92C203.675 156.589 203.248 156.424 202.693 156.424C202.299 156.424 201.941 156.509 201.621 156.68C201.312 156.84 201.067 157.091 200.885 157.432C200.715 157.773 200.629 158.211 200.629 158.744V163H198.133V154.392H200.517V156.776L200.069 156.056C200.379 155.48 200.821 155.037 201.397 154.728C201.973 154.419 202.629 154.264 203.365 154.264ZM213.518 163.128C212.59 163.128 211.764 162.941 211.038 162.568C210.313 162.184 209.742 161.656 209.326 160.984C208.921 160.312 208.718 159.549 208.718 158.696C208.718 157.832 208.921 157.069 209.326 156.408C209.742 155.736 210.313 155.213 211.038 154.84C211.764 154.456 212.59 154.264 213.518 154.264C214.425 154.264 215.214 154.456 215.886 154.84C216.558 155.213 217.054 155.752 217.374 156.456L215.438 157.496C215.214 157.091 214.932 156.792 214.59 156.6C214.26 156.408 213.897 156.312 213.502 156.312C213.076 156.312 212.692 156.408 212.35 156.6C212.009 156.792 211.737 157.064 211.534 157.416C211.342 157.768 211.246 158.195 211.246 158.696C211.246 159.197 211.342 159.624 211.534 159.976C211.737 160.328 212.009 160.6 212.35 160.792C212.692 160.984 213.076 161.08 213.502 161.08C213.897 161.08 214.26 160.989 214.59 160.808C214.932 160.616 215.214 160.312 215.438 159.896L217.374 160.952C217.054 161.645 216.558 162.184 215.886 162.568C215.214 162.941 214.425 163.128 213.518 163.128ZM223.074 163.128C222.093 163.128 221.229 162.936 220.482 162.552C219.746 162.168 219.175 161.645 218.77 160.984C218.365 160.312 218.162 159.549 218.162 158.696C218.162 157.832 218.359 157.069 218.754 156.408C219.159 155.736 219.709 155.213 220.402 154.84C221.095 154.456 221.879 154.264 222.754 154.264C223.597 154.264 224.354 154.445 225.026 154.808C225.709 155.16 226.247 155.672 226.642 156.344C227.037 157.005 227.234 157.8 227.234 158.728C227.234 158.824 227.229 158.936 227.218 159.064C227.207 159.181 227.197 159.293 227.186 159.4H220.194V157.944H225.874L224.914 158.376C224.914 157.928 224.823 157.539 224.642 157.208C224.461 156.877 224.21 156.621 223.89 156.44C223.57 156.248 223.197 156.152 222.77 156.152C222.343 156.152 221.965 156.248 221.634 156.44C221.314 156.621 221.063 156.883 220.882 157.224C220.701 157.555 220.61 157.949 220.61 158.408V158.792C220.61 159.261 220.711 159.677 220.914 160.04C221.127 160.392 221.421 160.664 221.794 160.856C222.178 161.037 222.626 161.128 223.138 161.128C223.597 161.128 223.997 161.059 224.338 160.92C224.69 160.781 225.01 160.573 225.298 160.296L226.626 161.736C226.231 162.184 225.735 162.531 225.138 162.776C224.541 163.011 223.853 163.128 223.074 163.128Z" fill="#183865"/>
</svg>