<svg xmlns="http://www.w3.org/2000/svg" width="330" height="181" viewBox="0 0 330 181" fill="none">
<path d="M165 40L171.329 59.4803H191.812L175.241 71.5198L181.571 91L165 78.9607L148.429 91L154.758 71.5198L138.188 59.4803H158.67L165 40Z" stroke="#183865" stroke-width="4" stroke-linecap="round" stroke-linejoin="round"/>
<path d="M144.604 139.192C143.729 139.192 142.913 139.048 142.156 138.76C141.409 138.472 140.758 138.067 140.204 137.544C139.66 137.021 139.233 136.408 138.924 135.704C138.625 135 138.476 134.232 138.476 133.4C138.476 132.568 138.625 131.8 138.924 131.096C139.233 130.392 139.665 129.779 140.22 129.256C140.774 128.733 141.425 128.328 142.172 128.04C142.918 127.752 143.729 127.608 144.604 127.608C145.489 127.608 146.3 127.752 147.036 128.04C147.782 128.328 148.428 128.733 148.972 129.256C149.526 129.768 149.958 130.376 150.268 131.08C150.577 131.784 150.732 132.557 150.732 133.4C150.732 134.232 150.577 135.005 150.268 135.72C149.958 136.424 149.526 137.037 148.972 137.56C148.428 138.072 147.782 138.472 147.036 138.76C146.3 139.048 145.489 139.192 144.604 139.192ZM148.268 141.576C147.83 141.576 147.414 141.528 147.02 141.432C146.636 141.336 146.252 141.181 145.868 140.968C145.494 140.755 145.1 140.467 144.684 140.104C144.278 139.741 143.836 139.293 143.356 138.76L146.076 138.072C146.364 138.467 146.63 138.781 146.876 139.016C147.121 139.251 147.356 139.416 147.58 139.512C147.814 139.608 148.06 139.656 148.316 139.656C148.998 139.656 149.606 139.379 150.14 138.824L151.292 140.2C150.534 141.117 149.526 141.576 148.268 141.576ZM144.604 136.984C145.105 136.984 145.564 136.899 145.98 136.728C146.406 136.557 146.78 136.312 147.1 135.992C147.42 135.672 147.665 135.293 147.836 134.856C148.017 134.408 148.108 133.923 148.108 133.4C148.108 132.867 148.017 132.381 147.836 131.944C147.665 131.507 147.42 131.128 147.1 130.808C146.78 130.488 146.406 130.243 145.98 130.072C145.564 129.901 145.105 129.816 144.604 129.816C144.102 129.816 143.638 129.901 143.212 130.072C142.785 130.243 142.412 130.488 142.092 130.808C141.782 131.128 141.537 131.507 141.356 131.944C141.185 132.381 141.1 132.867 141.1 133.4C141.1 133.923 141.185 134.408 141.356 134.856C141.537 135.293 141.782 135.672 142.092 135.992C142.412 136.312 142.785 136.557 143.212 136.728C143.638 136.899 144.102 136.984 144.604 136.984ZM156.236 139.128C155.521 139.128 154.881 138.989 154.316 138.712C153.761 138.435 153.329 138.013 153.02 137.448C152.71 136.872 152.556 136.141 152.556 135.256V130.392H155.052V134.888C155.052 135.603 155.201 136.131 155.5 136.472C155.809 136.803 156.241 136.968 156.796 136.968C157.18 136.968 157.521 136.888 157.82 136.728C158.118 136.557 158.353 136.301 158.524 135.96C158.694 135.608 158.78 135.171 158.78 134.648V130.392H161.276V139H158.908V136.632L159.34 137.32C159.052 137.917 158.625 138.371 158.06 138.68C157.505 138.979 156.897 139.128 156.236 139.128ZM163.688 139V130.392H166.184V139H163.688ZM164.936 129.192C164.477 129.192 164.104 129.059 163.816 128.792C163.528 128.525 163.384 128.195 163.384 127.8C163.384 127.405 163.528 127.075 163.816 126.808C164.104 126.541 164.477 126.408 164.936 126.408C165.395 126.408 165.768 126.536 166.056 126.792C166.344 127.037 166.488 127.357 166.488 127.752C166.488 128.168 166.344 128.515 166.056 128.792C165.779 129.059 165.405 129.192 164.936 129.192ZM172.76 139.128C171.832 139.128 171.006 138.941 170.28 138.568C169.555 138.184 168.984 137.656 168.568 136.984C168.163 136.312 167.96 135.549 167.96 134.696C167.96 133.832 168.163 133.069 168.568 132.408C168.984 131.736 169.555 131.213 170.28 130.84C171.006 130.456 171.832 130.264 172.76 130.264C173.667 130.264 174.456 130.456 175.128 130.84C175.8 131.213 176.296 131.752 176.616 132.456L174.68 133.496C174.456 133.091 174.174 132.792 173.832 132.6C173.502 132.408 173.139 132.312 172.744 132.312C172.318 132.312 171.934 132.408 171.592 132.6C171.251 132.792 170.979 133.064 170.776 133.416C170.584 133.768 170.488 134.195 170.488 134.696C170.488 135.197 170.584 135.624 170.776 135.976C170.979 136.328 171.251 136.6 171.592 136.792C171.934 136.984 172.318 137.08 172.744 137.08C173.139 137.08 173.502 136.989 173.832 136.808C174.174 136.616 174.456 136.312 174.68 135.896L176.616 136.952C176.296 137.645 175.8 138.184 175.128 138.568C174.456 138.941 173.667 139.128 172.76 139.128ZM180.171 137.24L180.235 134.2L184.251 130.392H187.227L183.371 134.312L182.075 135.368L180.171 137.24ZM178.107 139V127.128H180.603V139H178.107ZM184.523 139L181.611 135.384L183.179 133.448L187.547 139H184.523ZM95.6964 163.128C94.8858 163.128 94.1551 162.947 93.5044 162.584C92.8538 162.211 92.3364 161.693 91.9524 161.032C91.5791 160.371 91.3924 159.592 91.3924 158.696C91.3924 157.789 91.5791 157.005 91.9524 156.344C92.3364 155.683 92.8538 155.171 93.5044 154.808C94.1551 154.445 94.8858 154.264 95.6964 154.264C96.4218 154.264 97.0564 154.424 97.6004 154.744C98.1444 155.064 98.5658 155.549 98.8644 156.2C99.1631 156.851 99.3124 157.683 99.3124 158.696C99.3124 159.699 99.1684 160.531 98.8804 161.192C98.5924 161.843 98.1764 162.328 97.6324 162.648C97.0991 162.968 96.4538 163.128 95.6964 163.128ZM96.1284 161.08C96.5338 161.08 96.9018 160.984 97.2324 160.792C97.5631 160.6 97.8244 160.328 98.0164 159.976C98.2191 159.613 98.3204 159.187 98.3204 158.696C98.3204 158.195 98.2191 157.768 98.0164 157.416C97.8244 157.064 97.5631 156.792 97.2324 156.6C96.9018 156.408 96.5338 156.312 96.1284 156.312C95.7124 156.312 95.3391 156.408 95.0084 156.6C94.6778 156.792 94.4111 157.064 94.2084 157.416C94.0164 157.768 93.9204 158.195 93.9204 158.696C93.9204 159.187 94.0164 159.613 94.2084 159.976C94.4111 160.328 94.6778 160.6 95.0084 160.792C95.3391 160.984 95.7124 161.08 96.1284 161.08ZM98.3844 163V161.24L98.4324 158.68L98.2724 156.136V151.128H100.768V163H98.3844ZM107.275 163.128C106.357 163.128 105.541 162.936 104.827 162.552C104.123 162.168 103.563 161.645 103.147 160.984C102.741 160.312 102.539 159.549 102.539 158.696C102.539 157.832 102.741 157.069 103.147 156.408C103.563 155.736 104.123 155.213 104.827 154.84C105.541 154.456 106.357 154.264 107.275 154.264C108.181 154.264 108.992 154.456 109.707 154.84C110.421 155.213 110.981 155.731 111.387 156.392C111.792 157.053 111.995 157.821 111.995 158.696C111.995 159.549 111.792 160.312 111.387 160.984C110.981 161.645 110.421 162.168 109.707 162.552C108.992 162.936 108.181 163.128 107.275 163.128ZM107.275 161.08C107.691 161.08 108.064 160.984 108.395 160.792C108.725 160.6 108.987 160.328 109.179 159.976C109.371 159.613 109.467 159.187 109.467 158.696C109.467 158.195 109.371 157.768 109.179 157.416C108.987 157.064 108.725 156.792 108.395 156.6C108.064 156.408 107.691 156.312 107.275 156.312C106.859 156.312 106.485 156.408 106.155 156.6C105.824 156.792 105.557 157.064 105.355 157.416C105.163 157.768 105.067 158.195 105.067 158.696C105.067 159.187 105.163 159.613 105.355 159.976C105.557 160.328 105.824 160.6 106.155 160.792C106.485 160.984 106.859 161.08 107.275 161.08ZM117.859 163.128C116.942 163.128 116.126 162.936 115.411 162.552C114.707 162.168 114.147 161.645 113.731 160.984C113.326 160.312 113.123 159.549 113.123 158.696C113.123 157.832 113.326 157.069 113.731 156.408C114.147 155.736 114.707 155.213 115.411 154.84C116.126 154.456 116.942 154.264 117.859 154.264C118.766 154.264 119.576 154.456 120.291 154.84C121.006 155.213 121.566 155.731 121.971 156.392C122.376 157.053 122.579 157.821 122.579 158.696C122.579 159.549 122.376 160.312 121.971 160.984C121.566 161.645 121.006 162.168 120.291 162.552C119.576 162.936 118.766 163.128 117.859 163.128ZM117.859 161.08C118.275 161.08 118.648 160.984 118.979 160.792C119.31 160.6 119.571 160.328 119.763 159.976C119.955 159.613 120.051 159.187 120.051 158.696C120.051 158.195 119.955 157.768 119.763 157.416C119.571 157.064 119.31 156.792 118.979 156.6C118.648 156.408 118.275 156.312 117.859 156.312C117.443 156.312 117.07 156.408 116.739 156.6C116.408 156.792 116.142 157.064 115.939 157.416C115.747 157.768 115.651 158.195 115.651 158.696C115.651 159.187 115.747 159.613 115.939 159.976C116.142 160.328 116.408 160.6 116.739 160.792C117.07 160.984 117.443 161.08 117.859 161.08ZM124.347 163V154.392H126.731V156.824L126.395 156.12C126.651 155.512 127.062 155.053 127.627 154.744C128.193 154.424 128.881 154.264 129.691 154.264V156.568C129.585 156.557 129.489 156.552 129.403 156.552C129.318 156.541 129.227 156.536 129.131 156.536C128.449 156.536 127.894 156.733 127.467 157.128C127.051 157.512 126.843 158.115 126.843 158.936V163H124.347ZM134.234 163.128C133.498 163.128 132.789 163.043 132.106 162.872C131.434 162.691 130.901 162.467 130.506 162.2L131.338 160.408C131.733 160.653 132.197 160.856 132.73 161.016C133.274 161.165 133.807 161.24 134.33 161.24C134.906 161.24 135.311 161.171 135.546 161.032C135.791 160.893 135.914 160.701 135.914 160.456C135.914 160.253 135.818 160.104 135.626 160.008C135.445 159.901 135.199 159.821 134.89 159.768C134.581 159.715 134.239 159.661 133.866 159.608C133.503 159.555 133.135 159.485 132.762 159.4C132.389 159.304 132.047 159.165 131.738 158.984C131.429 158.803 131.178 158.557 130.986 158.248C130.805 157.939 130.714 157.539 130.714 157.048C130.714 156.504 130.869 156.024 131.178 155.608C131.498 155.192 131.957 154.867 132.554 154.632C133.151 154.387 133.866 154.264 134.698 154.264C135.285 154.264 135.882 154.328 136.49 154.456C137.098 154.584 137.605 154.771 138.01 155.016L137.178 156.792C136.762 156.547 136.341 156.381 135.914 156.296C135.498 156.2 135.093 156.152 134.698 156.152C134.143 156.152 133.738 156.227 133.482 156.376C133.226 156.525 133.098 156.717 133.098 156.952C133.098 157.165 133.189 157.325 133.37 157.432C133.562 157.539 133.813 157.624 134.122 157.688C134.431 157.752 134.767 157.811 135.13 157.864C135.503 157.907 135.877 157.976 136.25 158.072C136.623 158.168 136.959 158.307 137.258 158.488C137.567 158.659 137.818 158.899 138.01 159.208C138.202 159.507 138.298 159.901 138.298 160.392C138.298 160.925 138.138 161.4 137.818 161.816C137.498 162.221 137.034 162.541 136.426 162.776C135.829 163.011 135.098 163.128 134.234 163.128ZM143.458 163.128C142.445 163.128 141.655 162.872 141.09 162.36C140.525 161.837 140.242 161.064 140.242 160.04V152.488H142.738V160.008C142.738 160.371 142.834 160.653 143.026 160.856C143.218 161.048 143.479 161.144 143.81 161.144C144.205 161.144 144.541 161.037 144.818 160.824L145.49 162.584C145.234 162.765 144.925 162.904 144.562 163C144.21 163.085 143.842 163.128 143.458 163.128ZM138.914 156.504V154.584H144.882V156.504H138.914ZM150.997 163.128C150.016 163.128 149.152 162.936 148.405 162.552C147.669 162.168 147.099 161.645 146.693 160.984C146.288 160.312 146.085 159.549 146.085 158.696C146.085 157.832 146.283 157.069 146.677 156.408C147.083 155.736 147.632 155.213 148.325 154.84C149.019 154.456 149.803 154.264 150.677 154.264C151.52 154.264 152.277 154.445 152.949 154.808C153.632 155.16 154.171 155.672 154.565 156.344C154.96 157.005 155.157 157.8 155.157 158.728C155.157 158.824 155.152 158.936 155.141 159.064C155.131 159.181 155.12 159.293 155.109 159.4H148.117V157.944H153.797L152.837 158.376C152.837 157.928 152.747 157.539 152.565 157.208C152.384 156.877 152.133 156.621 151.813 156.44C151.493 156.248 151.12 156.152 150.693 156.152C150.267 156.152 149.888 156.248 149.557 156.44C149.237 156.621 148.987 156.883 148.805 157.224C148.624 157.555 148.533 157.949 148.533 158.408V158.792C148.533 159.261 148.635 159.677 148.837 160.04C149.051 160.392 149.344 160.664 149.717 160.856C150.101 161.037 150.549 161.128 151.061 161.128C151.52 161.128 151.92 161.059 152.261 160.92C152.613 160.781 152.933 160.573 153.221 160.296L154.549 161.736C154.155 162.184 153.659 162.531 153.061 162.776C152.464 163.011 151.776 163.128 150.997 163.128ZM162.007 163.128C161.282 163.128 160.647 162.968 160.103 162.648C159.559 162.328 159.133 161.843 158.823 161.192C158.525 160.531 158.375 159.699 158.375 158.696C158.375 157.683 158.519 156.851 158.807 156.2C159.095 155.549 159.511 155.064 160.055 154.744C160.599 154.424 161.25 154.264 162.007 154.264C162.818 154.264 163.543 154.451 164.183 154.824C164.834 155.187 165.346 155.699 165.719 156.36C166.103 157.021 166.295 157.8 166.295 158.696C166.295 159.603 166.103 160.387 165.719 161.048C165.346 161.709 164.834 162.221 164.183 162.584C163.543 162.947 162.818 163.128 162.007 163.128ZM156.919 166.104V154.392H159.303V156.152L159.255 158.712L159.415 161.256V166.104H156.919ZM161.575 161.08C161.991 161.08 162.359 160.984 162.679 160.792C163.01 160.6 163.271 160.328 163.463 159.976C163.666 159.613 163.767 159.187 163.767 158.696C163.767 158.195 163.666 157.768 163.463 157.416C163.271 157.064 163.01 156.792 162.679 156.6C162.359 156.408 161.991 156.312 161.575 156.312C161.159 156.312 160.786 156.408 160.455 156.6C160.125 156.792 159.863 157.064 159.671 157.416C159.479 157.768 159.383 158.195 159.383 158.696C159.383 159.187 159.479 159.613 159.671 159.976C159.863 160.328 160.125 160.6 160.455 160.792C160.786 160.984 161.159 161.08 161.575 161.08ZM176.393 163.128C175.583 163.128 174.852 162.947 174.201 162.584C173.551 162.211 173.033 161.693 172.649 161.032C172.276 160.371 172.089 159.592 172.089 158.696C172.089 157.789 172.276 157.005 172.649 156.344C173.033 155.683 173.551 155.171 174.201 154.808C174.852 154.445 175.583 154.264 176.393 154.264C177.119 154.264 177.753 154.424 178.297 154.744C178.841 155.064 179.263 155.549 179.561 156.2C179.86 156.851 180.009 157.683 180.009 158.696C180.009 159.699 179.865 160.531 179.577 161.192C179.289 161.843 178.873 162.328 178.329 162.648C177.796 162.968 177.151 163.128 176.393 163.128ZM176.825 161.08C177.231 161.08 177.599 160.984 177.929 160.792C178.26 160.6 178.521 160.328 178.713 159.976C178.916 159.613 179.017 159.187 179.017 158.696C179.017 158.195 178.916 157.768 178.713 157.416C178.521 157.064 178.26 156.792 177.929 156.6C177.599 156.408 177.231 156.312 176.825 156.312C176.409 156.312 176.036 156.408 175.705 156.6C175.375 156.792 175.108 157.064 174.905 157.416C174.713 157.768 174.617 158.195 174.617 158.696C174.617 159.187 174.713 159.613 174.905 159.976C175.108 160.328 175.375 160.6 175.705 160.792C176.036 160.984 176.409 161.08 176.825 161.08ZM179.081 163V161.24L179.129 158.68L178.969 156.136V151.128H181.465V163H179.081ZM188.147 163.128C187.166 163.128 186.302 162.936 185.555 162.552C184.819 162.168 184.249 161.645 183.843 160.984C183.438 160.312 183.235 159.549 183.235 158.696C183.235 157.832 183.433 157.069 183.827 156.408C184.233 155.736 184.782 155.213 185.475 154.84C186.169 154.456 186.953 154.264 187.827 154.264C188.67 154.264 189.427 154.445 190.099 154.808C190.782 155.16 191.321 155.672 191.715 156.344C192.11 157.005 192.307 157.8 192.307 158.728C192.307 158.824 192.302 158.936 192.291 159.064C192.281 159.181 192.27 159.293 192.259 159.4H185.267V157.944H190.947L189.987 158.376C189.987 157.928 189.897 157.539 189.715 157.208C189.534 156.877 189.283 156.621 188.963 156.44C188.643 156.248 188.27 156.152 187.843 156.152C187.417 156.152 187.038 156.248 186.707 156.44C186.387 156.621 186.137 156.883 185.955 157.224C185.774 157.555 185.683 157.949 185.683 158.408V158.792C185.683 159.261 185.785 159.677 185.987 160.04C186.201 160.392 186.494 160.664 186.867 160.856C187.251 161.037 187.699 161.128 188.211 161.128C188.67 161.128 189.07 161.059 189.411 160.92C189.763 160.781 190.083 160.573 190.371 160.296L191.699 161.736C191.305 162.184 190.809 162.531 190.211 162.776C189.614 163.011 188.926 163.128 188.147 163.128ZM194.069 163V151.128H196.565V163H194.069ZM198.982 163V154.392H201.478V163H198.982ZM200.23 153.192C199.771 153.192 199.398 153.059 199.11 152.792C198.822 152.525 198.678 152.195 198.678 151.8C198.678 151.405 198.822 151.075 199.11 150.808C199.398 150.541 199.771 150.408 200.23 150.408C200.688 150.408 201.062 150.536 201.35 150.792C201.638 151.037 201.782 151.357 201.782 151.752C201.782 152.168 201.638 152.515 201.35 152.792C201.072 153.059 200.699 153.192 200.23 153.192ZM206.23 163L202.614 154.392H205.19L208.198 161.8H206.918L210.038 154.392H212.438L208.806 163H206.23ZM217.594 163.128C216.613 163.128 215.749 162.936 215.002 162.552C214.266 162.168 213.696 161.645 213.29 160.984C212.885 160.312 212.682 159.549 212.682 158.696C212.682 157.832 212.88 157.069 213.274 156.408C213.68 155.736 214.229 155.213 214.922 154.84C215.616 154.456 216.4 154.264 217.274 154.264C218.117 154.264 218.874 154.445 219.546 154.808C220.229 155.16 220.768 155.672 221.162 156.344C221.557 157.005 221.754 157.8 221.754 158.728C221.754 158.824 221.749 158.936 221.738 159.064C221.728 159.181 221.717 159.293 221.706 159.4H214.714V157.944H220.394L219.434 158.376C219.434 157.928 219.344 157.539 219.162 157.208C218.981 156.877 218.73 156.621 218.41 156.44C218.09 156.248 217.717 156.152 217.29 156.152C216.864 156.152 216.485 156.248 216.154 156.44C215.834 156.621 215.584 156.883 215.402 157.224C215.221 157.555 215.13 157.949 215.13 158.408V158.792C215.13 159.261 215.232 159.677 215.434 160.04C215.648 160.392 215.941 160.664 216.314 160.856C216.698 161.037 217.146 161.128 217.658 161.128C218.117 161.128 218.517 161.059 218.858 160.92C219.21 160.781 219.53 160.573 219.818 160.296L221.146 161.736C220.752 162.184 220.256 162.531 219.658 162.776C219.061 163.011 218.373 163.128 217.594 163.128ZM223.516 163V154.392H225.9V156.824L225.564 156.12C225.82 155.512 226.231 155.053 226.796 154.744C227.361 154.424 228.049 154.264 228.86 154.264V156.568C228.753 156.557 228.657 156.552 228.572 156.552C228.487 156.541 228.396 156.536 228.3 156.536C227.617 156.536 227.063 156.733 226.636 157.128C226.22 157.512 226.012 158.115 226.012 158.936V163H223.516ZM231.829 166.232C231.381 166.232 230.938 166.163 230.501 166.024C230.064 165.885 229.706 165.693 229.429 165.448L230.341 163.672C230.533 163.843 230.752 163.976 230.997 164.072C231.253 164.168 231.504 164.216 231.749 164.216C232.101 164.216 232.378 164.131 232.581 163.96C232.794 163.8 232.986 163.528 233.157 163.144L233.605 162.088L233.797 161.816L236.885 154.392H239.285L235.397 163.528C235.12 164.221 234.8 164.765 234.437 165.16C234.085 165.555 233.69 165.832 233.253 165.992C232.826 166.152 232.352 166.232 231.829 166.232ZM233.301 163.336L229.461 154.392H232.037L235.013 161.592L233.301 163.336Z" fill="#183865"/>
</svg>